<?xml version="1.0" encoding="utf-8"?>
<svg viewBox="326.59918212890625 45.80298614501953 230.60003662109375 161.89999389648438" width="230.60003662109375" height="161.89999389648438" xmlns="http://www.w3.org/2000/svg"><g transform="matrix(1, 0, 0, 1, -757.8009033203125, -193.9970245361328)"><g transform="matrix(1, 0, 0, 1, 0, 0)">
				<g>
					<g>
						<path class="st0" d="M1132.6,242h32.6c19,0,34.4,15.4,34.4,34.4v106.1h-101.5V276.5C1098.2,257.5,1113.6,242,1132.6,242z" style="fill: rgb(240, 86, 99);"/>
						<path class="st1" d="M1199.7,384.8h-101.5c-1.2,0-2.2-1-2.2-2.2V276.5c0-20.2,16.4-36.7,36.7-36.7h32.6&#10;&#9;&#9;&#9;&#9;&#9;&#9;&#9;c20.2,0,36.7,16.4,36.7,36.7v106.1C1201.9,383.8,1200.9,384.8,1199.7,384.8z M1100.4,380.4h97V276.5&#10;&#9;&#9;&#9;&#9;&#9;&#9;&#9;c0-17.7-14.4-32.2-32.2-32.2h-32.6c-17.7,0-32.2,14.4-32.2,32.2V380.4z" style="fill: rgb(80, 45, 26);"/>
						<path d="M 1156.000024 258 A 7.1 7.1 0 0 1 1148.900024 265.1 A 7.1 7.1 0 0 1 1141.800025 258 A 7.1 7.1 0 0 1 1148.900024 250.9 A 7.1 7.1 0 0 1 1156.000024 258 Z" class="st3" style="fill: rgb(255, 208, 103);"/>
						<path class="st1" d="M1148.9,266.7c-4.8,0-8.7-3.9-8.7-8.7c0-4.8,3.9-8.7,8.7-8.7s8.7,3.9,8.7,8.7&#10;&#9;&#9;&#9;&#9;&#9;&#9;&#9;C1157.6,262.8,1153.7,266.7,1148.9,266.7z M1148.9,252.6c-3,0-5.5,2.5-5.5,5.5c0,3,2.5,5.5,5.5,5.5s5.5-2.5,5.5-5.5&#10;&#9;&#9;&#9;&#9;&#9;&#9;&#9;C1154.4,255,1152,252.6,1148.9,252.6z" style="fill: rgb(80, 45, 26);"/>
						<path d="M 1122.800048828125 355.6000061035156 L 1112 355.6000061035156 L 1098.199951171875 355.6000061035156 L 1098.199951171875 382.6000061035156 L 1199.699951171875 382.6000061035156 L 1199.699951171875 355.6000061035156 Z" class="st2" style="fill: rgb(244, 154, 165);"/>
						<path class="st1" d="M1199.7,384.8h-101.5c-1.2,0-2.2-1-2.2-2.2v-27c0-1.2,1-2.2,2.2-2.2h13.8c1.2,0,2.2,1,2.2,2.2&#10;&#9;&#9;&#9;&#9;&#9;&#9;&#9;c0,1.2-1,2.2-2.2,2.2h-11.5v22.5h97v-22.5h-74.7c-1.2,0-2.2-1-2.2-2.2c0-1.2,1-2.2,2.2-2.2h76.9c1.2,0,2.2,1,2.2,2.2v27&#10;&#9;&#9;&#9;&#9;&#9;&#9;&#9;C1201.9,383.8,1200.9,384.8,1199.7,384.8z" style="fill: rgb(80, 45, 26);"/>
						<g>
							<g>
								<g>
									<g>
										<path class="st1" d="M1178.3,295.2c-0.9,0-1.6-0.7-1.6-1.6v-12.3c0-0.9,0.7-1.6,1.6-1.6c0.9,0,1.6,0.7,1.6,1.6v12.3&#10;&#9;&#9;&#9;&#9;&#9;&#9;&#9;&#9;&#9;&#9;&#9;C1179.9,294.5,1179.2,295.2,1178.3,295.2z" style="fill: rgb(80, 45, 26);"/>
										<path class="st1" d="M1184.5,289h-12.3c-0.9,0-1.6-0.7-1.6-1.6c0-0.9,0.7-1.6,1.6-1.6h12.3c0.9,0,1.6,0.7,1.6,1.6&#10;&#9;&#9;&#9;&#9;&#9;&#9;&#9;&#9;&#9;&#9;&#9;C1186.1,288.3,1185.4,289,1184.5,289z" style="fill: rgb(80, 45, 26);"/>
									</g>
									<g>
										<path class="st1" d="M1148.9,295.2c-0.9,0-1.6-0.7-1.6-1.6v-12.3c0-0.9,0.7-1.6,1.6-1.6s1.6,0.7,1.6,1.6v12.3&#10;&#9;&#9;&#9;&#9;&#9;&#9;&#9;&#9;&#9;&#9;&#9;C1150.5,294.5,1149.8,295.2,1148.9,295.2z" style="fill: rgb(80, 45, 26);"/>
										<path class="st1" d="M1155.1,289h-12.3c-0.9,0-1.6-0.7-1.6-1.6c0-0.9,0.7-1.6,1.6-1.6h12.3c0.9,0,1.6,0.7,1.6,1.6&#10;&#9;&#9;&#9;&#9;&#9;&#9;&#9;&#9;&#9;&#9;&#9;C1156.7,288.3,1156,289,1155.1,289z" style="fill: rgb(80, 45, 26);"/>
									</g>
									<g>
										<path class="st1" d="M1119.6,295.2c-0.9,0-1.6-0.7-1.6-1.6v-12.3c0-0.9,0.7-1.6,1.6-1.6c0.9,0,1.6,0.7,1.6,1.6v12.3&#10;&#9;&#9;&#9;&#9;&#9;&#9;&#9;&#9;&#9;&#9;&#9;C1121.2,294.5,1120.5,295.2,1119.6,295.2z" style="fill: rgb(80, 45, 26);"/>
										<path class="st1" d="M1125.7,289h-12.3c-0.9,0-1.6-0.7-1.6-1.6c0-0.9,0.7-1.6,1.6-1.6h12.3c0.9,0,1.6,0.7,1.6,1.6&#10;&#9;&#9;&#9;&#9;&#9;&#9;&#9;&#9;&#9;&#9;&#9;C1127.3,288.3,1126.6,289,1125.7,289z" style="fill: rgb(80, 45, 26);"/>
									</g>
								</g>
								<g>
									<g>
										<path class="st1" d="M1178.3,327.2c-0.9,0-1.6-0.7-1.6-1.6v-12.3c0-0.9,0.7-1.6,1.6-1.6c0.9,0,1.6,0.7,1.6,1.6v12.3&#10;&#9;&#9;&#9;&#9;&#9;&#9;&#9;&#9;&#9;&#9;&#9;C1179.9,326.4,1179.2,327.2,1178.3,327.2z" style="fill: rgb(80, 45, 26);"/>
										<path class="st1" d="M1184.5,321h-12.3c-0.9,0-1.6-0.7-1.6-1.6c0-0.9,0.7-1.6,1.6-1.6h12.3c0.9,0,1.6,0.7,1.6,1.6&#10;&#9;&#9;&#9;&#9;&#9;&#9;&#9;&#9;&#9;&#9;&#9;C1186.1,320.3,1185.4,321,1184.5,321z" style="fill: rgb(80, 45, 26);"/>
									</g>
									<g>
										<path class="st1" d="M1148.9,327.2c-0.9,0-1.6-0.7-1.6-1.6v-12.3c0-0.9,0.7-1.6,1.6-1.6s1.6,0.7,1.6,1.6v12.3&#10;&#9;&#9;&#9;&#9;&#9;&#9;&#9;&#9;&#9;&#9;&#9;C1150.5,326.4,1149.8,327.2,1148.9,327.2z" style="fill: rgb(80, 45, 26);"/>
										<path class="st1" d="M1155.1,321h-12.3c-0.9,0-1.6-0.7-1.6-1.6c0-0.9,0.7-1.6,1.6-1.6h12.3c0.9,0,1.6,0.7,1.6,1.6&#10;&#9;&#9;&#9;&#9;&#9;&#9;&#9;&#9;&#9;&#9;&#9;C1156.7,320.3,1156,321,1155.1,321z" style="fill: rgb(80, 45, 26);"/>
									</g>
									<g>
										<path class="st1" d="M1119.6,327.2c-0.9,0-1.6-0.7-1.6-1.6v-12.3c0-0.9,0.7-1.6,1.6-1.6c0.9,0,1.6,0.7,1.6,1.6v12.3&#10;&#9;&#9;&#9;&#9;&#9;&#9;&#9;&#9;&#9;&#9;&#9;C1121.2,326.4,1120.5,327.2,1119.6,327.2z" style="fill: rgb(80, 45, 26);"/>
										<path class="st1" d="M1125.7,321h-12.3c-0.9,0-1.6-0.7-1.6-1.6c0-0.9,0.7-1.6,1.6-1.6h12.3c0.9,0,1.6,0.7,1.6,1.6&#10;&#9;&#9;&#9;&#9;&#9;&#9;&#9;&#9;&#9;&#9;&#9;C1127.3,320.3,1126.6,321,1125.7,321z" style="fill: rgb(80, 45, 26);"/>
									</g>
								</g>
							</g>
						</g>
					</g>
					<g>
						<path class="st0" d="M1234.1,242h32.6c19,0,34.4,15.4,34.4,34.4v106.1h-101.5V276.5C1199.7,257.5,1215.1,242,1234.1,242z" style="fill: rgb(240, 86, 99);"/>
						<path class="st1" d="M1301.2,384.8h-101.5c-1.2,0-2.2-1-2.2-2.2V276.5c0-20.2,16.4-36.7,36.7-36.7h32.6&#10;&#9;&#9;&#9;&#9;&#9;&#9;&#9;c20.2,0,36.7,16.4,36.7,36.7v106.1C1303.4,383.8,1302.4,384.8,1301.2,384.8z M1201.9,380.4h97V276.5&#10;&#9;&#9;&#9;&#9;&#9;&#9;&#9;c0-17.7-14.4-32.2-32.2-32.2h-32.6c-17.7,0-32.2,14.4-32.2,32.2V380.4z" style="fill: rgb(80, 45, 26);"/>
						<path d="M 1257.500024 258 A 7.1 7.1 0 0 1 1250.400024 265.1 A 7.1 7.1 0 0 1 1243.300025 258 A 7.1 7.1 0 0 1 1250.400024 250.9 A 7.1 7.1 0 0 1 1257.500024 258 Z" class="st3" style="fill: rgb(255, 208, 103);"/>
						<path class="st1" d="M1250.4,266.7c-4.8,0-8.7-3.9-8.7-8.7c0-4.8,3.9-8.7,8.7-8.7s8.7,3.9,8.7,8.7&#10;&#9;&#9;&#9;&#9;&#9;&#9;&#9;C1259.1,262.8,1255.2,266.7,1250.4,266.7z M1250.4,252.6c-3,0-5.5,2.5-5.5,5.5c0,3,2.5,5.5,5.5,5.5c3,0,5.5-2.5,5.5-5.5&#10;&#9;&#9;&#9;&#9;&#9;&#9;&#9;C1255.9,255,1253.4,252.6,1250.4,252.6z" style="fill: rgb(80, 45, 26);"/>
						<path d="M 1224.300048828125 355.6000061035156 L 1213.4000244140625 355.6000061035156 L 1199.699951171875 355.6000061035156 L 1199.699951171875 382.6000061035156 L 1301.199951171875 382.6000061035156 L 1301.199951171875 355.6000061035156 Z" class="st2" style="fill: rgb(244, 154, 165);"/>
						<path class="st1" d="M1301.2,384.8h-101.5c-1.2,0-2.2-1-2.2-2.2v-27c0-1.2,1-2.2,2.2-2.2h13.8c1.2,0,2.2,1,2.2,2.2&#10;&#9;&#9;&#9;&#9;&#9;&#9;&#9;c0,1.2-1,2.2-2.2,2.2h-11.5v22.5h97v-22.5h-74.7c-1.2,0-2.2-1-2.2-2.2c0-1.2,1-2.2,2.2-2.2h76.9c1.2,0,2.2,1,2.2,2.2v27&#10;&#9;&#9;&#9;&#9;&#9;&#9;&#9;C1303.4,383.8,1302.4,384.8,1301.2,384.8z" style="fill: rgb(80, 45, 26);"/>
						<g>
							<g>
								<g>
									<g>
										<path class="st1" d="M1279.8,295.2c-0.9,0-1.6-0.7-1.6-1.6v-12.3c0-0.9,0.7-1.6,1.6-1.6c0.9,0,1.6,0.7,1.6,1.6v12.3&#10;&#9;&#9;&#9;&#9;&#9;&#9;&#9;&#9;&#9;&#9;&#9;C1281.4,294.5,1280.7,295.2,1279.8,295.2z" style="fill: rgb(80, 45, 26);"/>
										<path class="st1" d="M1286,289h-12.3c-0.9,0-1.6-0.7-1.6-1.6c0-0.9,0.7-1.6,1.6-1.6h12.3c0.9,0,1.6,0.7,1.6,1.6&#10;&#9;&#9;&#9;&#9;&#9;&#9;&#9;&#9;&#9;&#9;&#9;C1287.5,288.3,1286.8,289,1286,289z" style="fill: rgb(80, 45, 26);"/>
									</g>
									<g>
										<path class="st1" d="M1250.4,295.2c-0.9,0-1.6-0.7-1.6-1.6v-12.3c0-0.9,0.7-1.6,1.6-1.6c0.9,0,1.6,0.7,1.6,1.6v12.3&#10;&#9;&#9;&#9;&#9;&#9;&#9;&#9;&#9;&#9;&#9;&#9;C1252,294.5,1251.3,295.2,1250.4,295.2z" style="fill: rgb(80, 45, 26);"/>
										<path class="st1" d="M1256.6,289h-12.3c-0.9,0-1.6-0.7-1.6-1.6c0-0.9,0.7-1.6,1.6-1.6h12.3c0.9,0,1.6,0.7,1.6,1.6&#10;&#9;&#9;&#9;&#9;&#9;&#9;&#9;&#9;&#9;&#9;&#9;C1258.2,288.3,1257.5,289,1256.6,289z" style="fill: rgb(80, 45, 26);"/>
									</g>
									<g>
										<path class="st1" d="M1221.1,295.2c-0.9,0-1.6-0.7-1.6-1.6v-12.3c0-0.9,0.7-1.6,1.6-1.6c0.9,0,1.6,0.7,1.6,1.6v12.3&#10;&#9;&#9;&#9;&#9;&#9;&#9;&#9;&#9;&#9;&#9;&#9;C1222.6,294.5,1221.9,295.2,1221.1,295.2z" style="fill: rgb(80, 45, 26);"/>
										<path class="st1" d="M1227.2,289h-12.3c-0.9,0-1.6-0.7-1.6-1.6c0-0.9,0.7-1.6,1.6-1.6h12.3c0.9,0,1.6,0.7,1.6,1.6&#10;&#9;&#9;&#9;&#9;&#9;&#9;&#9;&#9;&#9;&#9;&#9;C1228.8,288.3,1228.1,289,1227.2,289z" style="fill: rgb(80, 45, 26);"/>
									</g>
								</g>
								<g>
									<g>
										<path class="st1" d="M1279.8,327.2c-0.9,0-1.6-0.7-1.6-1.6v-12.3c0-0.9,0.7-1.6,1.6-1.6c0.9,0,1.6,0.7,1.6,1.6v12.3&#10;&#9;&#9;&#9;&#9;&#9;&#9;&#9;&#9;&#9;&#9;&#9;C1281.4,326.4,1280.7,327.2,1279.8,327.2z" style="fill: rgb(80, 45, 26);"/>
										<path class="st1" d="M1286,321h-12.3c-0.9,0-1.6-0.7-1.6-1.6c0-0.9,0.7-1.6,1.6-1.6h12.3c0.9,0,1.6,0.7,1.6,1.6&#10;&#9;&#9;&#9;&#9;&#9;&#9;&#9;&#9;&#9;&#9;&#9;C1287.5,320.3,1286.8,321,1286,321z" style="fill: rgb(80, 45, 26);"/>
									</g>
									<g>
										<path class="st1" d="M1250.4,327.2c-0.9,0-1.6-0.7-1.6-1.6v-12.3c0-0.9,0.7-1.6,1.6-1.6c0.9,0,1.6,0.7,1.6,1.6v12.3&#10;&#9;&#9;&#9;&#9;&#9;&#9;&#9;&#9;&#9;&#9;&#9;C1252,326.4,1251.3,327.2,1250.4,327.2z" style="fill: rgb(80, 45, 26);"/>
										<path class="st1" d="M1256.6,321h-12.3c-0.9,0-1.6-0.7-1.6-1.6c0-0.9,0.7-1.6,1.6-1.6h12.3c0.9,0,1.6,0.7,1.6,1.6&#10;&#9;&#9;&#9;&#9;&#9;&#9;&#9;&#9;&#9;&#9;&#9;C1258.2,320.3,1257.5,321,1256.6,321z" style="fill: rgb(80, 45, 26);"/>
									</g>
									<g>
										<path class="st1" d="M1221.1,327.2c-0.9,0-1.6-0.7-1.6-1.6v-12.3c0-0.9,0.7-1.6,1.6-1.6c0.9,0,1.6,0.7,1.6,1.6v12.3&#10;&#9;&#9;&#9;&#9;&#9;&#9;&#9;&#9;&#9;&#9;&#9;C1222.6,326.4,1221.9,327.2,1221.1,327.2z" style="fill: rgb(80, 45, 26);"/>
										<path class="st1" d="M1227.2,321h-12.3c-0.9,0-1.6-0.7-1.6-1.6c0-0.9,0.7-1.6,1.6-1.6h12.3c0.9,0,1.6,0.7,1.6,1.6&#10;&#9;&#9;&#9;&#9;&#9;&#9;&#9;&#9;&#9;&#9;&#9;C1228.8,320.3,1228.1,321,1227.2,321z" style="fill: rgb(80, 45, 26);"/>
									</g>
								</g>
							</g>
						</g>
					</g>
				</g>
				<g>
					<g>
						<g>
							<path d="M 1092.099976 335.299988 H 1104.699976 V 382.599987 H 1092.099976 V 335.299988 Z" class="st0" style="fill: rgb(240, 86, 99);"/>
							<path class="st1" d="M1104.7,384.8h-12.6c-1.2,0-2.2-1-2.2-2.2v-47.3c0-1.2,1-2.2,2.2-2.2h12.6c1.2,0,2.2,1,2.2,2.2v47.3&#10;&#9;&#9;&#9;&#9;&#9;&#9;&#9;&#9;C1106.9,383.8,1105.9,384.8,1104.7,384.8z M1094.3,380.4h8.1v-42.8h-8.1V380.4z" style="fill: rgb(80, 45, 26);"/>
						</g>
						<path class="st0" d="M1098.4,313.5c-6.5,0-11.8,5.3-11.8,11.8v10h23.6v-10C1110.2,318.8,1104.9,313.5,1098.4,313.5z" style="fill: rgb(240, 86, 99);"/>
						<path class="st1" d="M1110.2,337.6h-23.6c-1.2,0-2.2-1-2.2-2.2v-10c0-7.7,6.3-14,14-14c7.7,0,14,6.3,14,14v10&#10;&#9;&#9;&#9;&#9;&#9;&#9;&#9;C1112.4,336.6,1111.4,337.6,1110.2,337.6z M1088.8,333.1h19.1v-7.8c0-5.3-4.3-9.6-9.6-9.6s-9.6,4.3-9.6,9.6V333.1z" style="fill: rgb(80, 45, 26);"/>
					</g>
					<g>
						<g>
							<path d="M 1193.400024 335.299988 H 1206.000025 V 382.599987 H 1193.400024 V 335.299988 Z" class="st0" style="fill: rgb(240, 86, 99);"/>
							<path class="st1" d="M1206,384.8h-12.6c-1.2,0-2.2-1-2.2-2.2v-47.3c0-1.2,1-2.2,2.2-2.2h12.6c1.2,0,2.2,1,2.2,2.2v47.3&#10;&#9;&#9;&#9;&#9;&#9;&#9;&#9;&#9;C1208.2,383.8,1207.2,384.8,1206,384.8z M1195.6,380.4h8.1v-42.8h-8.1V380.4z" style="fill: rgb(80, 45, 26);"/>
						</g>
						<path class="st0" d="M1199.7,313.5c-6.5,0-11.8,5.3-11.8,11.8v10h23.6v-10C1211.5,318.8,1206.2,313.5,1199.7,313.5z" style="fill: rgb(240, 86, 99);"/>
						<path class="st1" d="M1211.5,337.6h-23.6c-1.2,0-2.2-1-2.2-2.2v-10c0-7.7,6.3-14,14-14c7.7,0,14,6.3,14,14v10&#10;&#9;&#9;&#9;&#9;&#9;&#9;&#9;C1213.7,336.6,1212.7,337.6,1211.5,337.6z M1190.1,333.1h19.1v-7.8c0-5.3-4.3-9.6-9.6-9.6s-9.6,4.3-9.6,9.6V333.1z" style="fill: rgb(80, 45, 26);"/>
					</g>
					<g>
						<g>
							<path d="M 1294.699951 335.299988 H 1307.299952 V 382.599987 H 1294.699951 V 335.299988 Z" class="st0" style="fill: rgb(240, 86, 99);"/>
							<path class="st1" d="M1307.3,384.8h-12.6c-1.2,0-2.2-1-2.2-2.2v-47.3c0-1.2,1-2.2,2.2-2.2h12.6c1.2,0,2.2,1,2.2,2.2v47.3&#10;&#9;&#9;&#9;&#9;&#9;&#9;&#9;&#9;C1309.5,383.8,1308.5,384.8,1307.3,384.8z M1296.9,380.4h8.1v-42.8h-8.1V380.4z" style="fill: rgb(80, 45, 26);"/>
						</g>
						<path class="st0" d="M1301,313.5c-6.5,0-11.8,5.3-11.8,11.8v10h23.6v-10C1312.8,318.8,1307.5,313.5,1301,313.5z" style="fill: rgb(240, 86, 99);"/>
						<path class="st1" d="M1312.8,337.6h-23.6c-1.2,0-2.2-1-2.2-2.2v-10c0-7.7,6.3-14,14-14c7.7,0,14,6.3,14,14v10&#10;&#9;&#9;&#9;&#9;&#9;&#9;&#9;C1315,336.6,1314,337.6,1312.8,337.6z M1291.4,333.1h19.1v-7.8c0-5.3-4.3-9.6-9.6-9.6s-9.6,4.3-9.6,9.6V333.1z" style="fill: rgb(80, 45, 26);"/>
					</g>
				</g>
				<path class="st1" d="M1098.4,401.7c-1.2,0-2.2-1-2.2-2.2v-16.9c0-1.2,1-2.2,2.2-2.2c1.2,0,2.2,1,2.2,2.2v16.9&#10;&#9;&#9;&#9;&#9;&#9;C1100.6,400.7,1099.6,401.7,1098.4,401.7z" style="fill: rgb(80, 45, 26);"/>
				<path class="st1" d="M1199.7,401.7c-1.2,0-2.2-1-2.2-2.2v-16.9c0-1.2,1-2.2,2.2-2.2c1.2,0,2.2,1,2.2,2.2v16.9&#10;&#9;&#9;&#9;&#9;&#9;C1201.9,400.7,1200.9,401.7,1199.7,401.7z" style="fill: rgb(80, 45, 26);"/>
				<path class="st1" d="M1301,401.7c-1.2,0-2.2-1-2.2-2.2v-16.9c0-1.2,1-2.2,2.2-2.2s2.2,1,2.2,2.2v16.9&#10;&#9;&#9;&#9;&#9;&#9;C1303.2,400.7,1302.2,401.7,1301,401.7z" style="fill: rgb(80, 45, 26);"/>
			</g></g></svg>