<?xml version="1.0" encoding="UTF-8"?>
<svg xmlns="http://www.w3.org/2000/svg" xmlns:xlink="http://www.w3.org/1999/xlink" width="2184" height="2906" viewBox="0 0 2184 2906">
<path fill-rule="evenodd" fill="rgb(10.984802%, 10.594177%, 9.008789%)" fill-opacity="1" d="M 538.109375 2695.859375 C 540.601562 2707.527344 560.804688 2804.238281 560.257812 2807.335938 C 559.289062 2812.800781 547.539062 2808.175781 543.082031 2807.28125 C 499.953125 2798.628906 501.0625 2804.726562 493.523438 2757.476562 C 489.328125 2731.175781 486.976562 2709.402344 481.152344 2682.867188 C 479.421875 2675.011719 477.734375 2667.210938 476.164062 2659.308594 C 468.765625 2620.679688 461.410156 2582.046875 454.027344 2543.433594 C 446.039062 2501.632812 439.105469 2459.453125 429.804688 2417.953125 C 422.59375 2385.8125 416.953125 2351.238281 411.792969 2318.621094 L 391.359375 2208.078125 C 385.203125 2172.378906 368.089844 2076.085938 359.25 2043.09375 L 327.222656 1876.390625 C 324.367188 1854.410156 318.328125 1830.128906 313.898438 1806.820312 C 292.171875 1692.449219 260.445312 1584.46875 240.417969 1470.441406 C 227.121094 1395.71875 208.609375 1319.011719 198.632812 1244.078125 C 197.808594 1237.898438 197.203125 1232.058594 196.886719 1225.839844 C 201.269531 1226.910156 227.714844 1232.101562 228.867188 1234.648438 C 233.382812 1244.539062 246.199219 1308.929688 249.328125 1323.289062 C 252.964844 1339.941406 256.566406 1356.601562 260.117188 1373.25 C 282.753906 1483.371094 305.203125 1592.898438 329.085938 1702.789062 C 358.210938 1843.738281 386.070312 1984.203125 417.433594 2124.792969 C 431.433594 2187.53125 442.796875 2250.328125 457.171875 2313.238281 C 486.199219 2440.261719 510.363281 2568.59375 538.109375 2695.859375 Z M 1048.761719 2658.183594 C 1046.230469 2592.835938 1045.339844 2528.566406 1043.859375 2463.046875 C 1043.511719 2447.558594 1041.128906 2432.894531 1041 2417.148438 L 1037.398438 2271.671875 C 1036.289062 2206.4375 1034.960938 2139.832031 1032.261719 2074.929688 C 1026.828125 1941.898438 1025.539062 1808.789062 1020.320312 1675.5 C 1017.941406 1614.648438 1017.539062 1554.039062 1015.058594 1492.929688 C 1012.089844 1415.210938 1008.890625 1327.820312 1011.53125 1250.671875 C 1012.609375 1219.140625 1010.5 1224.460938 1042.828125 1215.5 C 1087.398438 1203.171875 1116.039062 1180.550781 1157.011719 1165.078125 C 1186.589844 1153.898438 1195.839844 1166.171875 1224.328125 1179.269531 C 1262.300781 1196.710938 1258.191406 1201.390625 1257.019531 1242.03125 C 1254.699219 1323.609375 1249.609375 1404.691406 1246.878906 1486.140625 C 1245.5 1532.300781 1244.621094 1576.339844 1242.140625 1622.609375 C 1239.261719 1676.28125 1238 1731.828125 1235.71875 1785.839844 C 1234.839844 1806.660156 1234.109375 1827.441406 1233.621094 1848.269531 L 1222.359375 2247.746094 C 1219.570312 2381.054688 1211.109375 2510.902344 1210.589844 2647.222656 C 1209.609375 2700.921875 1204.941406 2753.941406 1204.910156 2807.769531 C 1204.519531 2853.304688 1198.429688 2845.160156 1155.78125 2846.847656 C 1142.890625 2847.378906 1061.910156 2851.792969 1058.21875 2842.015625 C 1054.570312 2832.324219 1052.828125 2760.71875 1052.390625 2744.886719 C 1051.359375 2719.925781 1050.300781 2694.980469 1049.261719 2670.019531 C 1049.109375 2666.085938 1048.929688 2662.148438 1048.769531 2658.195312 Z M 465.074219 1281.988281 C 464.308594 1273.140625 458.09375 1237.898438 461.554688 1232.921875 C 477.863281 1224.339844 510.828125 1212.550781 528.851562 1205.289062 C 550.03125 1196.511719 624.277344 1163.480469 642.359375 1164.851562 C 666.785156 1166.691406 700.902344 1191.339844 707.4375 1215.371094 C 716.691406 1249.359375 720.066406 1325.679688 722.996094 1364.148438 C 725.71875 1399.191406 728.027344 1434.261719 730.722656 1469.289062 C 735.511719 1529.5 740.167969 1589.699219 744.277344 1649.960938 C 747.277344 1694.171875 751.355469 1738.398438 756.476562 1782.421875 L 766.425781 1899.761719 C 769.050781 1939.375 773.460938 1977.570312 775.78125 2017.6875 C 778.089844 2057.558594 781.089844 2095.710938 785.53125 2134.339844 C 792.378906 2193.804688 793.996094 2246.882812 801.0625 2307.9375 C 803.484375 2328.859375 804.378906 2345.945312 805.863281 2367.460938 C 807.1875 2386.652344 812.089844 2402.972656 812.582031 2422.539062 L 820.238281 2526.578125 C 824.046875 2541.429688 822.15625 2575.429688 826.742188 2600.59375 C 829.046875 2626.574219 831.355469 2652.558594 833.660156 2678.542969 C 835.769531 2698.714844 851.5 2829.90625 840.007812 2837.042969 C 826.8125 2845.246094 750.203125 2832.210938 734.832031 2824.527344 C 704.910156 2807.785156 703.84375 2777.503906 699.921875 2746.761719 C 698.003906 2732.226562 696.375 2717.691406 694.296875 2703.171875 C 673.964844 2572.820312 655.410156 2439.164062 630.492188 2309.851562 C 622.863281 2270.257812 619.375 2218.304688 608.488281 2180.957031 C 604.449219 2167.113281 603.886719 2142.789062 600.640625 2126.335938 C 591.109375 2077.988281 584.191406 2024.1875 576.203125 1974.960938 C 544.824219 1781.800781 509.800781 1588.390625 479.503906 1395.289062 C 473.5625 1357.460938 468.5625 1320.121094 465.058594 1281.980469 Z M 1669.371094 2704.296875 C 1665.460938 2726.660156 1661.769531 2749.039062 1658.28125 2771.476562 C 1653.910156 2800.257812 1649.300781 2793.683594 1621.578125 2799.636719 C 1615.871094 2800.863281 1569.238281 2812.066406 1569.671875 2803.777344 C 1580.058594 2608.96875 1792.671875 1243.578125 1798.699219 1234.320312 C 1805.589844 1223.710938 1832.558594 1231.730469 1844.539062 1233.339844 C 1870.539062 1236.851562 1895.378906 1239.078125 1921.46875 1241.269531 C 1919.589844 1281.878906 1908.398438 1336.378906 1902.390625 1378.199219 C 1888.53125 1474.609375 1867.578125 1573.628906 1850.589844 1670.121094 C 1789.949219 2014.804688 1729.488281 2359.527344 1669.359375 2704.296875 Z M 1400.160156 2723.070312 C 1399.039062 2737.347656 1392.789062 2822.984375 1387.761719 2832.296875 C 1378.558594 2836.910156 1241.171875 2849.3125 1234.089844 2845.132812 C 1224.160156 2839.246094 1228.679688 2814.664062 1228.988281 2803.472656 C 1230.148438 2761.539062 1232.128906 2719.59375 1233.640625 2677.664062 C 1240.460938 2457.003906 1247.269531 2236.34375 1254.089844 2015.683594 C 1257.421875 1877.769531 1262.570312 1741.910156 1268.089844 1604.148438 C 1272.621094 1482.109375 1272.488281 1357.519531 1279.96875 1235.941406 C 1282.910156 1195.75 1289.488281 1203.648438 1328.28125 1214.941406 C 1400.480469 1235.96875 1425.050781 1225.058594 1494.910156 1214.910156 C 1532.261719 1210.601562 1524.871094 1222.511719 1521.589844 1255.710938 C 1518.230469 1296.660156 1514.589844 1335.109375 1512.109375 1376.378906 C 1505.210938 1491.648438 1493.25 1606.671875 1483.320312 1721.710938 C 1454.621094 2055.421875 1426.519531 2389.175781 1400.140625 2723.070312 Z M 684.292969 2793.464844 C 690.304688 2832.644531 675.613281 2825.132812 642.445312 2819.808594 C 632.726562 2818.253906 589.355469 2812.183594 585.246094 2804.296875 C 578.84375 2788.390625 567.667969 2729.429688 563.574219 2710.496094 C 489.859375 2369.132812 422.03125 2026.0625 349.34375 1684.269531 C 337.101562 1626.691406 324.917969 1569.101562 312.976562 1511.449219 C 300.460938 1451.679688 284.253906 1388.449219 275.964844 1328.390625 C 271.636719 1297.949219 264.355469 1267.308594 261.472656 1236.988281 C 320 1242.441406 345.535156 1246.21875 405.363281 1237.738281 C 437.792969 1233.140625 431.375 1232.890625 435.007812 1264.519531 C 439.277344 1301.730469 446.3125 1339.019531 451.953125 1376.109375 C 492.285156 1622.949219 531.75 1868.828125 574.144531 2115.421875 C 610.003906 2324.011719 642 2533.527344 676.203125 2742.464844 C 678.984375 2759.453125 681.695312 2776.453125 684.320312 2793.46875 Z M 858.535156 2710.945312 L 858.21875 2707.398438 C 849.46875 2612.734375 841.378906 2517.289062 834.355469 2422.46875 C 824.925781 2294.078125 812.871094 2164.636719 802.230469 2036.230469 C 780.800781 1777.671875 761.550781 1519.410156 736.101562 1261.160156 C 728.171875 1180.738281 751.964844 1198.21875 816.261719 1216.140625 C 874.859375 1231.289062 902.039062 1227.359375 959.878906 1228.769531 C 991.859375 1229.550781 983.566406 1238.359375 984.503906 1267.960938 C 985.484375 1298.628906 985.558594 1329.269531 986.25 1359.941406 C 1000.179688 1831.851562 1012.25 2304.027344 1027.890625 2775.847656 C 1028.25 2786.558594 1034.53125 2843.964844 1024.660156 2847.539062 C 1008.660156 2853.335938 899.660156 2849.773438 884.363281 2842.898438 C 864.304688 2833.871094 865.777344 2807.710938 864.160156 2788.089844 C 862.703125 2770.296875 861.824219 2752.441406 860.554688 2734.636719 C 859.90625 2726.734375 859.257812 2718.847656 858.550781 2710.945312 Z M 1536.089844 2808.722656 C 1522.28125 2820.316406 1429.058594 2835.238281 1422.210938 2823.257812 C 1416.28125 2812.890625 1423.421875 2759.277344 1424.921875 2744.628906 C 1445.019531 2484.617188 1467.609375 2225.761719 1489.5 1965.964844 C 1494.75 1903.640625 1499.808594 1841.320312 1504.539062 1778.960938 C 1517.96875 1601.921875 1532.960938 1423.328125 1550.351562 1246.648438 C 1555.878906 1190.519531 1565.121094 1186.570312 1617.5 1169.570312 C 1650.25 1158.941406 1674.359375 1177.398438 1701.671875 1193.070312 C 1716.671875 1201.691406 1754.621094 1220.839844 1757.339844 1239.230469 C 1759.96875 1256.988281 1727.371094 1483.03125 1719.058594 1528.550781 C 1657.269531 1867.28125 1629.878906 2209.683594 1571.039062 2548.4375 C 1557.398438 2626.75 1551.910156 2700.738281 1541.339844 2778.660156 C 1540.101562 2787.828125 1538.730469 2799.914062 1536.109375 2808.710938 Z M 1257.679688 1160.511719 L 1252.808594 1157.75 C 1239.539062 1150.011719 1190.570312 1114.738281 1181.140625 1114.078125 C 1171.339844 1113.390625 1128.078125 1144.660156 1116.289062 1151.640625 C 1017.121094 1210.371094 889.410156 1217.121094 781.351562 1180.089844 C 749.46875 1169.160156 720.804688 1155.550781 691.503906 1138.980469 C 673.074219 1128.089844 638.902344 1105.628906 617.402344 1117.25 C 599.304688 1127.03125 579.148438 1145.921875 557.113281 1158.101562 C 487.714844 1196.5 410.480469 1211.28125 331.941406 1214.078125 C 285.453125 1214.699219 217.710938 1200.320312 175.734375 1180.351562 L 172.691406 1178.910156 C 160.480469 1172.578125 150.761719 1167.980469 140.796875 1160.980469 C 131.207031 1154.25 122.226562 1144.75 114.886719 1137.058594 C 90.355469 1111.421875 79.050781 1060.910156 112.359375 1028.929688 C 123.695312 1018.039062 128.4375 1015.679688 147.402344 1014.121094 C 179.066406 1011.53125 216.46875 1013.421875 248.710938 1013.488281 C 796.824219 1014.53125 1345.078125 1013.960938 1893.210938 1013.539062 C 1917.949219 1013.53125 1988.988281 1009.328125 2007.710938 1015 C 2061.519531 1031.308594 2039.171875 1112.878906 2014.261719 1146.96875 C 1951.089844 1233.378906 1834.398438 1210.488281 1748.019531 1179.351562 C 1711.671875 1166.039062 1687.199219 1150.660156 1654.449219 1131.140625 C 1621.441406 1111.449219 1621.820312 1124 1591.128906 1144.191406 C 1493.609375 1208.371094 1360.378906 1217 1257.671875 1160.511719 Z M 1497.871094 957.960938 L 1494.410156 964.710938 C 1477.300781 968.300781 1413.378906 967.128906 1393.578125 967.089844 C 1358.628906 967 1318.988281 967.5 1284.289062 965.339844 C 1277.738281 941.171875 1286.429688 914.800781 1295.328125 892.210938 C 1321.859375 833.421875 1393.730469 811.429688 1450.699219 838.78125 C 1496.398438 864.839844 1506.820312 909.109375 1497.851562 957.960938 Z M 501.496094 965.171875 C 474.863281 966.878906 403.964844 969.28125 380.605469 963.28125 C 381.457031 902.238281 433.554688 859.660156 491.808594 882.671875 C 502.101562 886.738281 499.175781 888.691406 497.273438 901.019531 C 492.3125 932.96875 493.464844 925.238281 500.097656 955.648438 C 500.878906 959.210938 501.164062 961.558594 501.496094 965.171875 Z M 1777.160156 957.769531 C 1766.621094 965.851562 1773.488281 963.929688 1763.859375 965.230469 C 1742.949219 968.039062 1708.808594 966.488281 1686.460938 966.488281 C 1661.558594 966.488281 1542.878906 963.320312 1528.878906 967.269531 C 1526.140625 929.941406 1537.871094 910.550781 1517.039062 872.351562 C 1506.011719 852.121094 1492.011719 840.140625 1475.539062 824.898438 C 1471.78125 821.410156 1475.078125 815.410156 1477.070312 810.609375 C 1482.121094 798.511719 1491.820312 786.539062 1500.738281 777.011719 C 1504.378906 768.800781 1516.769531 760.53125 1527.351562 753.910156 C 1558.140625 737.308594 1605.480469 722.191406 1639.539062 735.988281 C 1658.800781 743.800781 1641.769531 756.78125 1644.46875 765.628906 C 1646.859375 773.460938 1678.609375 749.21875 1684.480469 746.171875 C 1734.230469 722.578125 1790.179688 767.230469 1780.960938 820.929688 C 1774.449219 858.828125 1780.660156 834.699219 1805.550781 865.078125 C 1820.988281 883.929688 1816.820312 902.390625 1807.648438 922.761719 C 1803.890625 930.769531 1808.058594 922.878906 1802.941406 930.101562 C 1792.109375 945.371094 1795.539062 943.960938 1779.058594 956.300781 L 1777.128906 957.761719 Z M 1264.128906 894.238281 C 1252.890625 919.621094 1254.621094 940.449219 1254.011719 967.25 C 1221.808594 962.980469 1177.289062 965.640625 1143.898438 966.050781 C 1123 966.25 1038.898438 969.539062 1023.609375 963.78125 C 981.824219 942 961.578125 907.519531 976.617188 860.578125 C 984.058594 837.359375 998.21875 854.570312 1019.359375 858.570312 C 1032.328125 861.019531 1055.21875 861.089844 1060.441406 845.75 C 1062.460938 839.808594 1062.179688 841.589844 1053.921875 840.710938 C 1026.988281 837.828125 1002.75 843.511719 985.167969 816.808594 C 964.878906 785.980469 991.324219 748.210938 1014.820312 728.039062 C 1035.019531 712.480469 1083.320312 687.648438 1108.671875 696.089844 C 1121.269531 700.28125 1100.898438 707.328125 1099.929688 720.871094 C 1099.539062 726.351562 1100.140625 726.570312 1106.96875 725.941406 C 1122.441406 724.488281 1135.53125 713.480469 1159.660156 712.808594 C 1189.671875 711.988281 1211.53125 722.488281 1230.289062 745.058594 C 1242.140625 759.320312 1239.628906 756.890625 1246.328125 774.078125 C 1254.738281 795.671875 1265.378906 778.148438 1263 760.21875 C 1260.910156 744.410156 1259.171875 743.308594 1272.488281 731.078125 C 1312.550781 696.070312 1370.429688 695.78125 1406.300781 737.378906 C 1422.828125 756.550781 1428.449219 768.230469 1428.96875 794.300781 C 1429.289062 809.988281 1431.710938 804.738281 1412.648438 803.96875 C 1343.808594 801.21875 1292.910156 831.410156 1264.140625 894.238281 Z M 319.957031 638.839844 C 373.554688 598.378906 429.960938 609.308594 472.84375 658.699219 C 489.945312 678.390625 477.761719 680.28125 467.667969 702.679688 C 451.5625 744.871094 457.070312 788.789062 490.019531 821.148438 C 500.242188 831.179688 508.304688 839.101562 517.34375 850.390625 C 515.121094 855.511719 513.492188 858.589844 510.035156 863.019531 C 462.320312 855.410156 457.476562 848.859375 411.777344 871.988281 C 384.527344 885.769531 388.765625 877.238281 372.875 856.128906 C 362.089844 842.660156 352.847656 857.238281 361.050781 872.519531 C 373.566406 895.871094 377.503906 900.140625 363.503906 926.5 C 354.464844 943.511719 356.566406 941.03125 354.464844 960.800781 C 353.625 968.589844 350.09375 965.398438 339.609375 965.429688 C 275.574219 965.539062 211.59375 966.179688 147.542969 965.921875 C 116.902344 965.078125 109.058594 955.75 91.914062 931.601562 C 74.941406 907.679688 73.226562 866.21875 86.507812 840.789062 C 87.976562 837.960938 95.429688 841.808594 98.835938 842.859375 C 128.421875 852.121094 142.296875 856.789062 174.4375 851.71875 C 194.550781 848.53125 214.191406 839.128906 226.820312 822.660156 C 234.710938 812.390625 229.691406 806.441406 216.0625 810.328125 C 185.769531 818.980469 186.203125 834.371094 145.710938 830.230469 C 127.949219 828.410156 109.996094 823.351562 94.839844 813.78125 C 51.8125 784.578125 41.90625 730.269531 54.550781 682.359375 C 75.992188 621.25 127.558594 581.640625 193.597656 587.128906 C 198.601562 587.550781 205.796875 602.621094 208.984375 607.511719 C 226.417969 634.230469 240.691406 650.328125 273.191406 658.179688 C 276.886719 659.070312 272.644531 668.289062 271.765625 673.058594 L 268.765625 696.378906 C 272.023438 770.511719 307.253906 814.691406 382.089844 825.691406 C 400.980469 828.179688 425.59375 829.570312 438.28125 812.601562 C 429.296875 804.359375 408.851562 806.761719 397.085938 806.078125 C 360.199219 802.628906 337.777344 794.269531 313.886719 765 C 302.492188 750.511719 297.070312 735.960938 293.050781 718.179688 L 292.398438 714.308594 C 287.929688 684.050781 298.371094 659.761719 319.972656 638.839844 Z M 970.128906 964.300781 C 976.140625 971.710938 969.105469 968.589844 961.1875 968.328125 C 947.101562 967.859375 933.214844 967.71875 919.113281 966.960938 C 885.53125 966.859375 538.164062 966.339844 536.796875 965.671875 C 524.871094 954.871094 521.253906 915.648438 524.8125 899.371094 C 534.964844 852.941406 590.25 834.179688 632.714844 842.699219 L 636.550781 843.46875 C 652.46875 847.328125 672.640625 853.589844 682.664062 863.039062 C 698.726562 873.140625 706.972656 884.390625 712.671875 902.46875 C 716.261719 929.769531 698.796875 921.121094 690.390625 942.46875 C 684.480469 964.171875 732.796875 952.769531 733.476562 912.539062 C 733.707031 898.738281 731.269531 891.46875 723.800781 879.398438 C 716.519531 867.660156 707.421875 860.078125 696.707031 851.699219 C 681.019531 839.578125 658.640625 829.289062 637.152344 822.339844 C 613.867188 819.628906 603.050781 817.371094 579.402344 821.878906 C 557.414062 826.5 558.035156 824.160156 539.21875 810.25 C 492.773438 773.371094 474.503906 731.890625 516.707031 681.96875 C 560.644531 632.441406 638.03125 638.609375 694.371094 660.570312 C 711.847656 668.648438 734.960938 684.128906 740.226562 697.691406 C 738.8125 704.691406 729.480469 715.828125 725.820312 725.691406 C 713.261719 760.871094 712.007812 806.261719 735.652344 837.25 C 743.238281 846.121094 747.089844 843.898438 756.015625 838.03125 C 751.183594 817.921875 744.21875 813.261719 741.25 789.238281 C 740.183594 778.148438 739.574219 764.148438 743.007812 753.449219 L 750.476562 729.058594 C 758.683594 707.648438 780.640625 687.578125 805.414062 679.761719 C 831.15625 672.269531 865.386719 671.398438 885.53125 692.089844 C 903.367188 710.421875 903.855469 709.601562 911.210938 735.339844 C 912.855469 745.648438 913.171875 753.289062 917.511719 763.070312 C 932.046875 759.5 930.734375 751.851562 930.273438 738.320312 C 929.785156 723.96875 927.476562 719.808594 922.171875 707.070312 C 920.65625 703.691406 918.234375 696.230469 915.609375 694.070312 C 913.289062 692.148438 895.320312 673.640625 895.074219 671.570312 C 894.140625 663.328125 917.382812 625.46875 923.945312 617.109375 C 964.621094 565.300781 1046.191406 541.378906 1108.738281 561.609375 C 1115.910156 563.929688 1120.488281 566.019531 1126.640625 570.328125 C 1149.421875 580.898438 1170.46875 602.988281 1175.429688 628.128906 C 1178.230469 644.21875 1179.25 679.488281 1163.289062 689.121094 C 1156 693.519531 1129.441406 676 1118.230469 673.558594 L 1114.800781 672.808594 C 1073.5 667.058594 1017.109375 689.910156 987.808594 719.339844 C 971.152344 736.058594 961.464844 754.039062 957.253906 777.25 C 955.898438 802.820312 960.960938 802.828125 965.730469 824.488281 C 968.355469 836.398438 956.429688 845.5 950.519531 857.601562 C 932.796875 893.789062 946.941406 934.191406 970.113281 964.230469 Z M 2129.550781 665.300781 C 2146.738281 706.960938 2112.019531 751.589844 2079.140625 753.878906 C 2065.929688 755.671875 2045.910156 758.898438 2033.910156 752.21875 C 2014.488281 740.378906 1994.980469 721.800781 1971.050781 722.988281 C 1962.53125 723.269531 1964.21875 721.621094 1965.101562 712.929688 C 1966.578125 695.46875 1963.371094 680.820312 1957.851562 664.421875 C 1946.730469 633.589844 1932.398438 626.199219 1907.488281 609.890625 C 1898.769531 604.160156 1893.820312 599.851562 1892.078125 589.25 C 1890.199219 570.710938 1889.960938 569.570312 1884.828125 551.53125 C 1882.519531 543.410156 1878.839844 532.371094 1880.230469 523.960938 C 1882.128906 518.191406 1892.25 510.898438 1897.039062 506.371094 C 1914.960938 488.21875 1942.839844 478.429688 1967.839844 475.671875 C 2010.75 472.671875 2052.109375 490.578125 2068.53125 532.789062 C 2076.429688 553.089844 2077.589844 590.21875 2052.808594 599.03125 C 2045.550781 601.609375 2006.429688 610.949219 2014 624.089844 C 2020.828125 635.96875 2059.121094 619.230469 2075.640625 621.539062 C 2100.148438 624.96875 2119.160156 643.769531 2129.550781 665.300781 Z M 514.058594 460.960938 C 466.34375 490.679688 443.070312 530.019531 454.765625 587.261719 C 463.949219 632.269531 468.722656 612.960938 429.15625 599.269531 C 381.757812 582.890625 337.101562 593.191406 298.097656 623.441406 C 280.230469 637.300781 274.304688 632.691406 256.496094 620.148438 C 222.0625 595.941406 200.738281 540.390625 234.480469 507.871094 C 257.449219 485.75 288.261719 517.859375 326.792969 484.839844 C 338.285156 474.988281 350.84375 452.371094 325.769531 461.558594 C 294.679688 474.679688 258.011719 489.410156 237.796875 448.691406 C 217.507812 407.828125 244.414062 356.078125 282.277344 336.828125 C 341.945312 309.078125 415.703125 323.300781 449.441406 383.160156 C 478.742188 435.121094 462.609375 359.910156 505.175781 346.78125 C 522.925781 341.300781 512.847656 360.101562 510.625 370.761719 C 505.808594 393.808594 506.933594 407.828125 510.753906 430.78125 C 512.023438 437.601562 519.160156 454.320312 518.210938 456.929688 L 514.070312 460.960938 Z M 1834.359375 434.789062 C 1847.601562 454.460938 1846.460938 471.359375 1843.460938 493.898438 C 1803.070312 474 1797.761719 471.46875 1752.171875 471.328125 C 1723.308594 471.328125 1691.328125 480.648438 1672.210938 503.441406 C 1662.96875 515.28125 1645.058594 552.859375 1632.601562 555.140625 C 1620.261719 557.398438 1621.660156 543 1620.398438 533.589844 C 1614.320312 488.429688 1610.671875 477.828125 1573.960938 448.820312 C 1563.160156 439.949219 1570.21875 440.039062 1581.871094 429.128906 C 1639.679688 367.480469 1590.960938 320.070312 1602.570312 302.671875 C 1612.570312 287.660156 1638.601562 275.46875 1656.320312 272.328125 L 1662.96875 271.148438 C 1711.480469 265.75 1762.460938 299.191406 1770.511719 348.921875 C 1772.71875 362.589844 1770.960938 373.089844 1765.558594 385.710938 C 1753.03125 412.269531 1752.871094 408.449219 1778.25 408.25 C 1803.171875 408.050781 1818.660156 415.371094 1834.371094 434.789062 Z M 1359.550781 260.398438 C 1342.898438 276.140625 1329.121094 282.941406 1307.101562 288.621094 C 1291.628906 292.371094 1308.699219 311.851562 1348.550781 302.019531 C 1366.871094 297.328125 1375.078125 293.789062 1391.960938 285.871094 C 1417.871094 273.710938 1457.609375 268.640625 1485.828125 273.269531 C 1531.421875 280.738281 1569.949219 304.039062 1579.578125 352 C 1582.75 376.839844 1569.921875 396.738281 1553.089844 413.960938 C 1522.710938 445.03125 1484.441406 432.011719 1455.75 478.179688 C 1448.878906 490.058594 1445.871094 498.449219 1455.921875 509.371094 C 1479.671875 480.308594 1508.019531 448.660156 1549.441406 461.191406 C 1557.910156 464.140625 1563.210938 467.96875 1570.011719 473.609375 C 1612.699219 514.390625 1588.671875 594.589844 1605.179688 597.441406 C 1619.351562 599.890625 1635.101562 561.28125 1688.089844 575.96875 C 1706.589844 581.109375 1714.089844 589.28125 1728.609375 599.21875 C 1732.589844 601.941406 1735.199219 602.609375 1739.839844 603.71875 C 1751.058594 589.210938 1745.03125 586.109375 1731.609375 575.609375 C 1713.179688 561.191406 1704.761719 560.339844 1684.828125 551.371094 C 1672.929688 546.019531 1675.300781 540.429688 1681.789062 530.179688 C 1700.191406 501.089844 1740.859375 493.179688 1772.800781 496.519531 C 1816.550781 504.5 1870.21875 531.789062 1870.449219 582.851562 C 1870.578125 610.148438 1844.140625 616.089844 1871.839844 622.398438 C 1919.25 636.429688 1955.339844 670.089844 1938.339844 722.949219 C 1923.390625 769.449219 1870.5 764.949219 1870.78125 775.648438 C 1870.960938 782.300781 1883.859375 787.191406 1890.320312 787.390625 C 1913.058594 788.128906 1935.480469 772.078125 1950.308594 756.328125 C 1965.679688 740.011719 1968.429688 742.558594 1990.019531 753.429688 C 1994.230469 755.628906 1997.929688 757.769531 2001.859375 760.410156 C 2034.03125 784.191406 2041.871094 821.800781 2030.589844 858.878906 C 2028.261719 865.988281 2025.550781 872.058594 2022.261719 878.75 C 2019.300781 883.628906 2017.03125 885.789062 2014.761719 889.929688 C 1994.570312 920.808594 1971.601562 939.261719 1938.960938 956.261719 C 1914.058594 969.21875 1879.050781 966.808594 1850.710938 966.960938 C 1841.308594 967 1832.589844 966.808594 1823.199219 966.210938 C 1825.640625 960.648438 1831.820312 954.539062 1835.691406 948.21875 C 1861.539062 901 1850.339844 870.351562 1815.921875 832.78125 C 1796.21875 811.300781 1806.699219 802.039062 1796.859375 776.46875 C 1777.609375 737.699219 1737.550781 712.828125 1693.808594 721.800781 C 1658.269531 729.078125 1657.351562 712.769531 1624.351562 710.558594 C 1614.550781 709.898438 1595.128906 709.96875 1588.261719 702.359375 C 1575.789062 675.539062 1579.648438 668.660156 1584.148438 641.519531 C 1587.871094 619.070312 1562.488281 627.519531 1559.699219 659.558594 C 1558.390625 674.691406 1560.410156 689.839844 1563.660156 704.609375 C 1566.011719 713.949219 1563.398438 712.140625 1553.429688 714.398438 C 1535.261719 719.300781 1516.378906 728.050781 1500.558594 738.21875 C 1484.539062 749.769531 1463.300781 767.921875 1455.578125 786.339844 C 1444.539062 760.210938 1448.371094 752.160156 1427.621094 726.761719 C 1416.121094 712.679688 1390.128906 695.960938 1373.101562 690 C 1339.21875 678.148438 1303.121094 681.511719 1273.101562 701.519531 C 1263.578125 708.199219 1254.148438 716.359375 1245.171875 723.800781 C 1228.871094 711.460938 1227.03125 708.558594 1207.730469 699.691406 C 1194.269531 693.511719 1199.050781 690.769531 1201.988281 675.828125 C 1209.300781 638.648438 1208.660156 625.460938 1190.628906 591.601562 C 1171.601562 560.230469 1155.070312 553.261719 1126.910156 533.199219 C 1121.691406 529.480469 1123.699219 531.46875 1123.449219 522.871094 C 1123.378906 392.109375 1243.050781 402.921875 1246.929688 385.980469 C 1248.890625 377.390625 1228.710938 374.609375 1222.96875 374.621094 C 1196.988281 374.691406 1168.578125 387.121094 1147.578125 401.839844 C 1123.851562 418.480469 1105.890625 426.429688 1075.839844 424.628906 C 1048.121094 422.96875 1031.019531 407.308594 1013.460938 387.480469 L 1010.429688 384.050781 C 988.253906 358.691406 993.617188 385.589844 1002.589844 400.371094 C 1031.25 445.53125 1063.238281 445.578125 1111.960938 441.171875 C 1104.101562 470.699219 1096.699219 476.769531 1094.871094 510.289062 C 1094.148438 528.269531 1098.789062 526.691406 1080.238281 525.378906 C 1048.398438 523.140625 1030.398438 521.191406 998.390625 528.949219 C 971.167969 535.539062 943.351562 554.070312 920.785156 570.351562 C 913.199219 575.828125 885.847656 613.328125 880.109375 622.878906 C 873.964844 633.101562 869.582031 642.359375 865.300781 653.488281 C 827.78125 651 827.289062 647.25 790.59375 660.050781 L 785.097656 661.96875 C 780.714844 663.511719 776.359375 665.078125 771.992188 666.660156 C 770.664062 666.46875 743.109375 647.539062 738.25 644.621094 C 725.71875 637.101562 713.882812 631 699.632812 625.949219 C 660.167969 612.519531 589.644531 605.941406 550.898438 622.421875 C 545.621094 624.671875 516.289062 639.96875 514.15625 639.621094 C 508.128906 638.648438 491.488281 608.03125 488.71875 601.21875 C 469.472656 553.789062 484.507812 507.878906 528.546875 481.410156 C 544.105469 472.96875 544.871094 492.320312 558.4375 497.589844 L 564.855469 500.488281 C 585.285156 509.238281 624.480469 523.25 640.382812 498.640625 C 647.78125 487.179688 637.65625 490.058594 627.796875 490.160156 C 613.894531 490.289062 608.746094 490.449219 595.796875 486.46875 C 543.023438 469.019531 525.519531 412.410156 544.132812 363.691406 C 553.609375 338.898438 570.191406 321.660156 594.921875 312.011719 C 617.125 304.058594 636.027344 310.320312 655.207031 322.300781 C 684.480469 347.03125 686.296875 366.511719 685.820312 401.988281 C 685.460938 428.820312 701.0625 417.730469 706.8125 398.671875 C 712.855469 378.679688 707.5625 359.191406 703.699219 339.199219 C 695.035156 290.878906 730.5625 239.320312 769.46875 213.371094 C 798.492188 194 830.808594 184.308594 865.386719 181.441406 C 897.929688 180.058594 931.496094 185.710938 959.066406 204.179688 C 963.640625 207.238281 961.464844 213.5 961.246094 219.570312 C 960.523438 240.621094 961.304688 245.121094 964.953125 265.539062 C 966.507812 274.238281 956.863281 275.539062 949.351562 280.011719 C 895.566406 312.070312 844.535156 382.660156 883.351562 444.859375 C 902.890625 476.160156 948.195312 491.570312 981.578125 475.699219 C 989.132812 472.089844 1000.171875 464.988281 996.515625 455.339844 C 965.167969 451.941406 957.367188 473.378906 923.09375 453.878906 C 880.773438 429.820312 890.117188 382.839844 913.257812 348.839844 C 929.480469 325 963.566406 289.671875 994.988281 291.789062 C 1011.761719 292.921875 995.175781 304.378906 999.730469 319.449219 C 1003.609375 332.300781 1018.679688 311.460938 1024.449219 306.960938 C 1055.851562 282.480469 1096.648438 281.46875 1129.28125 304.378906 C 1141.910156 315.441406 1151.480469 329.828125 1156.359375 345.878906 C 1161.628906 363.230469 1173.851562 349.800781 1174.25 345.589844 C 1175.519531 332.429688 1158.75 306.988281 1149.488281 297.53125 C 1123.359375 270.859375 1086.359375 261.511719 1050.199219 268.789062 C 1017.539062 276.089844 1000.890625 278.460938 997.238281 237.199219 C 994.613281 207.441406 1003.808594 174.089844 1025.28125 152.75 C 1028.210938 150.011719 1029.78125 145.78125 1034.960938 140.96875 C 1039.050781 137.160156 1043.449219 133.738281 1048.148438 130.71875 C 1070.558594 118.789062 1100.941406 113.339844 1124.460938 125.148438 C 1140.578125 135.550781 1139.410156 171.511719 1167.578125 182.929688 C 1182.601562 189.011719 1183.800781 175.988281 1177.550781 164.011719 C 1167.078125 144.558594 1159.589844 135.140625 1162.121094 111.25 C 1168.121094 54.738281 1238.300781 29.261719 1278.839844 69.609375 C 1296.960938 87.640625 1303.921875 122.058594 1288.941406 143.121094 C 1284.160156 149.828125 1268.730469 163.738281 1276.890625 173.929688 C 1287.140625 186.730469 1308.738281 140.230469 1350.890625 162.859375 C 1390.480469 184.109375 1389.789062 229.988281 1359.53125 260.398438 Z M 1000.660156 107.640625 C 997.628906 110.859375 996.027344 111.050781 992.796875 114.410156 C 982.960938 125.46875 979.617188 134.148438 972.261719 145.671875 C 967.476562 153.011719 967.230469 150.53125 958.230469 146.691406 C 946.8125 142.109375 938.058594 138.289062 926.019531 134.878906 C 860.785156 117.808594 791.71875 137.621094 738.828125 173.511719 C 726.179688 182.089844 717.152344 191.910156 706.511719 201.828125 C 686.886719 220.128906 670.234375 252.75 661.796875 277.488281 C 633.191406 272.171875 630.40625 257.058594 592.28125 264.96875 C 558.398438 273.050781 559.796875 277.78125 535.382812 298.511719 C 524.597656 307.671875 507.007812 294.121094 480.820312 308.769531 C 458.714844 321.140625 466.070312 323.03125 442.566406 309.660156 C 408.234375 290.140625 381.945312 275.890625 340.921875 276.238281 C 320.460938 276.410156 302.191406 280.609375 282.796875 286.730469 C 209.707031 312.261719 160.230469 383.390625 190.398438 460.660156 C 202.378906 491.328125 192.980469 479.21875 179.523438 509.039062 C 158.085938 556.519531 188.609375 529.5 130.355469 547.179688 C 91.8125 558.871094 60.753906 581.421875 36.585938 613.410156 L 33.023438 618.121094 C -5.449219 673.621094 -13.652344 750.679688 26.433594 807.640625 C 49.476562 840.371094 35.546875 818.351562 29.75 861.898438 C 23.160156 911.410156 35.417969 951.210938 73.585938 983.140625 C 75.777344 984.96875 79.886719 987.941406 81.039062 990.558594 C 81.515625 992.460938 64.777344 1009.46875 62.628906 1012.179688 C 53.28125 1023.96875 50.5 1033.179688 46.519531 1047.488281 C 32.160156 1104.761719 59.554688 1158 102.585938 1190.03125 C 117.621094 1200.898438 125.234375 1205.46875 141.574219 1213.078125 C 152.1875 1218.03125 151.21875 1228.339844 152.980469 1239.890625 C 161.90625 1298.761719 175.34375 1361.300781 186.675781 1420.230469 C 201.949219 1499.699219 217.230469 1579.160156 232.503906 1658.628906 C 241.585938 1707.089844 253.785156 1758.859375 260.964844 1806.800781 C 274.519531 1897.339844 300.171875 2008.746094 317.792969 2101.710938 C 336.453125 2200.136719 355.097656 2299.167969 374.777344 2398.144531 C 394.289062 2496.28125 410.886719 2595.746094 431.820312 2692.820312 C 435.570312 2711.636719 454.476562 2826.515625 461.195312 2833.09375 C 467.871094 2839.625 522.378906 2853.179688 533.246094 2855.558594 C 628.691406 2876.40625 742.851562 2886.71875 840.570312 2894.273438 C 911.859375 2899.78125 986.683594 2904.714844 1058.191406 2905.40625 C 1265.109375 2906.847656 1468.570312 2885.738281 1671.359375 2844.960938 C 1703.988281 2838.328125 1699.480469 2833.46875 1705.230469 2800.332031 C 1713.980469 2753.988281 1724.378906 2699.007812 1731.230469 2649.992188 C 1747.46875 2536.511719 1771.269531 2424.488281 1790.421875 2311.511719 C 1846.171875 1982.171875 1908.761719 1653.941406 1962.550781 1324.300781 C 1965.648438 1305.320312 1972.269531 1241.101562 1984.359375 1230.488281 C 1998.441406 1218.140625 2016.75 1214.238281 2036.660156 1194.800781 C 2086.410156 1146.261719 2116.429688 1038.28125 2059.5 986.019531 C 2042.621094 970.519531 2025.921875 971.25 2018.28125 964.648438 C 2034.371094 945.691406 2043.171875 946.238281 2058.390625 919.199219 L 2068.441406 901.359375 C 2084.609375 870.390625 2086.050781 841.359375 2082.878906 804.539062 C 2106.320312 792.660156 2126.371094 795.988281 2146.988281 773.421875 C 2151.050781 768.960938 2154.480469 767.488281 2158.328125 762.820312 C 2190.621094 723.558594 2192.589844 660.828125 2160.960938 620.851562 L 2136.289062 597.789062 C 2115.230469 582.910156 2123.351562 588.75 2123.898438 563.398438 C 2124.128906 552.789062 2123.628906 550.351562 2121.378906 540.300781 C 2115.78125 515.171875 2104.789062 489.558594 2086.011719 473.121094 C 2074.359375 462.929688 2074.460938 459.621094 2057.398438 448.488281 C 2024.019531 426.710938 1972.28125 417.589844 1932.148438 431.941406 C 1925.5 434.320312 1919.679688 436.039062 1913.691406 438.890625 C 1905.78125 442.699219 1901.960938 446.5 1893.160156 449.171875 C 1885.390625 412.300781 1866.71875 390.628906 1834.179688 372.488281 C 1819.261719 364.171875 1823.46875 369.359375 1820.101562 350.089844 C 1812.179688 306.46875 1797.859375 277.878906 1761.058594 251.308594 C 1704.941406 213.039062 1640.109375 210.960938 1584.339844 251.179688 C 1562.320312 266.269531 1568.03125 254.308594 1543.300781 241.238281 C 1505.710938 221.390625 1475.660156 226.230469 1435.46875 227.179688 C 1427.238281 227.390625 1429.820312 223.941406 1429.398438 214.898438 C 1426.910156 162.410156 1409.53125 134.550781 1359.789062 114.5 C 1345.210938 108.609375 1349.140625 112.261719 1345.058594 96.851562 C 1337.878906 69.800781 1334.488281 62.300781 1317.519531 39.558594 C 1303.28125 20.769531 1275.761719 7.578125 1251.609375 2.699219 C 1201.820312 -6.269531 1149.449219 17.789062 1128.199219 64.269531 C 1122.269531 77.21875 1128.859375 75.691406 1111.871094 73.109375 C 1086.640625 69.28125 1076.589844 69.160156 1050.878906 76.730469 C 1031.46875 82.441406 1014.691406 93.261719 1000.699219 107.71875 Z M 745.789062 541.089844 C 728.53125 530.101562 716.1875 517.488281 711.257812 497.199219 C 709.929688 491.71875 705.820312 468.199219 696.679688 482.871094 C 686.238281 499.621094 698.394531 525.449219 710.636719 538.308594 C 740.253906 569.429688 783.65625 587.710938 824.824219 567.511719 C 837.226562 561.421875 845.601562 553.851562 854.414062 543.371094 C 885.90625 501.550781 878.074219 442.691406 835.132812 411.109375 C 815.554688 396.710938 795.234375 390.960938 770.910156 390.03125 C 761.523438 389.671875 742.863281 390.800781 745.691406 405 C 747.925781 416.261719 771.359375 410.480469 781.839844 410.898438 C 819.289062 412.410156 847.175781 438.238281 851.746094 475.378906 C 858.523438 530.339844 807.925781 571.851562 754.226562 545.691406 L 745.777344 541.089844 Z M 1346.289062 634.238281 C 1340.691406 640 1333.660156 647.550781 1346.871094 646.800781 C 1387.699219 638.058594 1424.890625 569.820312 1415.980469 530.050781 C 1407.761719 493.351562 1370.898438 461.011719 1332.03125 466.851562 C 1312.058594 469.851562 1297 477.328125 1282.800781 492.148438 C 1277.21875 497.980469 1275.941406 501.148438 1275.140625 508.710938 C 1288.5 515.789062 1283.480469 511.839844 1298.488281 501.601562 C 1320.460938 486.628906 1342.898438 478.070312 1367.628906 493.851562 C 1393.988281 510.679688 1401.371094 543.691406 1391.28125 572.328125 C 1380.769531 602.160156 1377.578125 604.441406 1355.03125 625.648438 C 1352.011719 628.488281 1349.191406 631.300781 1346.28125 634.230469 Z M 823.714844 951.148438 C 827.304688 964.808594 852.035156 953.761719 860.066406 950.300781 C 919.460938 917.160156 880.988281 871.121094 896.761719 845.210938 C 897.960938 843.25 922.992188 811.441406 914.425781 811.769531 C 910.535156 811.921875 885.660156 838.71875 879.101562 844.058594 C 846.136719 870.839844 805.027344 857.898438 794.703125 864.300781 C 786.945312 869.121094 798.941406 878.898438 805.054688 881.160156 C 823.65625 888.078125 845.011719 881.429688 863.265625 876.660156 C 868.515625 875.289062 871.066406 874.949219 876.476562 875.449219 C 878.566406 894.441406 874.355469 913.460938 857.097656 924 C 850.046875 928.308594 828.300781 937.859375 825.402344 942.070312 C 823.253906 945.199219 823.5 947.589844 823.714844 951.171875 Z M 1086.648438 830.03125 C 1111.601562 858.128906 1158.710938 870.730469 1193.328125 855.769531 C 1207 849.859375 1216.980469 835.679688 1192.941406 837.121094 C 1165.480469 838.78125 1143.941406 849.03125 1117.019531 831.28125 C 1087.941406 809.898438 1082.269531 775.109375 1078.550781 772.25 C 1075.621094 770 1070.660156 775.058594 1069.558594 778.71875 C 1064.75 794.921875 1076.558594 817.769531 1086.648438 830.011719 Z M 287.222656 825.011719 C 245.914062 806.21875 192.90625 855.441406 178.589844 891.53125 C 168.738281 916.371094 186.171875 928.101562 198.066406 909.289062 C 212.128906 887.070312 206.878906 876.699219 233.46875 857.558594 C 252.097656 844.148438 264.742188 843.738281 284.410156 837.871094 C 292.574219 835.441406 296.222656 830.609375 287.210938 825.011719 Z M 1555.230469 623.140625 C 1532.238281 606.269531 1517.191406 620.078125 1494.148438 583.441406 C 1478.050781 557.851562 1485.339844 542.851562 1489.578125 515.691406 C 1476.351562 510.488281 1473.800781 517.890625 1469.851562 529.980469 C 1445.628906 604.078125 1544.078125 657.691406 1556.710938 628.921875 L 1557.261719 625.851562 L 1555.210938 623.140625 Z M 1637.140625 834.28125 C 1672.640625 916.589844 1763.859375 892.769531 1750.621094 877.398438 C 1737.730469 862.429688 1682.480469 893.839844 1656.679688 827.789062 C 1654.488281 822.199219 1642.328125 778.480469 1634.921875 804.378906 C 1632.039062 814.46875 1633.578125 824.621094 1637.140625 834.28125 Z M 327.84375 418.769531 C 317.449219 426.75 335.054688 446.261719 343.257812 451.558594 C 369.128906 468.261719 416.769531 467.28125 436.96875 442.558594 C 444.339844 433.550781 440.777344 418.960938 426.257812 427.269531 C 406.488281 438.558594 405.492188 441.050781 379.8125 439.019531 C 356.121094 437.140625 339.394531 418.628906 327.828125 418.769531 Z M 1778.140625 622.03125 C 1790.121094 634.011719 1809.628906 647.03125 1826.28125 635.109375 C 1836.179688 628.011719 1823.660156 623.128906 1817.628906 621.371094 C 1791.171875 615.148438 1787.480469 601.578125 1784.03125 576.359375 C 1783.101562 568.949219 1785.921875 563.671875 1776.480469 566.53125 C 1754.859375 573.050781 1769.011719 609.328125 1778.121094 622.03125 Z M 529.339844 1131.160156 C 531.964844 1117.019531 521.683594 1103.488281 508.316406 1103.148438 C 499.058594 1102.921875 478.785156 1111.050781 470.0625 1114.121094 C 294.648438 1175.871094 256.019531 1122.628906 229.34375 1120.308594 C 218.140625 1130.820312 220.402344 1134.511719 225.867188 1147.429688 C 236.65625 1150.359375 244.816406 1162.769531 293.898438 1170.539062 C 339.164062 1177.710938 400.199219 1176.730469 446.804688 1166.070312 C 464.984375 1161.921875 483.53125 1155.289062 499.953125 1147.460938 Z M 766.484375 1119.929688 C 742.75 1116.5 757.570312 1130.101562 770.246094 1135.589844 C 870.246094 1177.308594 968.542969 1182.710938 1067.78125 1134.640625 C 1076.910156 1130.210938 1132.679688 1099.761719 1102.050781 1089.261719 C 1082.71875 1082.640625 1027.589844 1113.199219 1006.488281 1120.800781 C 914.859375 1153.851562 857.613281 1133.699219 766.484375 1119.929688 Z M 1253.878906 1119.078125 C 1237.121094 1114.519531 1230.398438 1110.75 1249.53125 1125.109375 C 1318.101562 1172.269531 1417.058594 1182.300781 1495.71875 1155.980469 C 1506.550781 1152.359375 1549.171875 1136.628906 1528.28125 1120.210938 C 1516.941406 1112.539062 1472.328125 1124.808594 1458.300781 1127.570312 C 1369.101562 1145.171875 1342.769531 1142.929688 1253.859375 1119.078125 Z M 1725.769531 1137.121094 C 1719.878906 1134.878906 1678.691406 1117.019531 1676.28125 1118.429688 C 1679.179688 1129.519531 1716.289062 1149.039062 1726.460938 1153.371094 C 1991.050781 1263.878906 2028.691406 1018.191406 1943.089844 1077.351562 C 1895.96875 1109.921875 1893.921875 1148.238281 1820.140625 1152.460938 C 1788.058594 1154.308594 1755.828125 1148.019531 1725.75 1137.121094 L 1725.769531 1137.121094 "/>
<path fill-rule="evenodd" fill="rgb(99.609375%, 82.421875%, 36.473083%)" fill-opacity="1" d="M 883.367188 444.859375 C 844.566406 382.671875 895.578125 312.070312 949.363281 280.011719 C 956.878906 275.539062 966.523438 274.230469 964.964844 265.539062 C 961.304688 245.121094 960.539062 240.609375 961.261719 219.570312 C 961.464844 213.5 963.640625 207.238281 959.082031 204.179688 C 931.511719 185.730469 897.945312 180.058594 865.398438 181.441406 C 830.835938 184.308594 798.507812 194 769.480469 213.371094 C 730.578125 239.320312 695.046875 290.890625 703.714844 339.210938 C 707.578125 359.210938 712.886719 378.691406 706.828125 398.671875 C 701.0625 417.71875 685.472656 428.820312 685.835938 401.988281 C 686.308594 366.519531 684.492188 347.039062 655.222656 322.308594 C 636.042969 310.320312 617.125 304.070312 594.933594 312.011719 C 570.191406 321.660156 553.609375 338.890625 544.148438 363.691406 C 525.53125 412.410156 543.054688 469.019531 595.8125 486.46875 C 608.761719 490.449219 613.925781 490.308594 627.808594 490.160156 C 637.6875 490.058594 647.808594 487.179688 640.398438 498.640625 C 624.492188 523.269531 585.300781 509.238281 564.867188 500.488281 L 558.453125 497.589844 C 544.882812 492.339844 544.121094 472.988281 528.5625 481.410156 C 484.523438 507.871094 469.484375 553.78125 488.734375 601.21875 C 491.503906 608.03125 508.128906 638.648438 514.171875 639.621094 C 516.304688 639.96875 545.632812 624.648438 550.910156 622.421875 C 589.65625 605.941406 660.183594 612.53125 699.648438 625.949219 C 713.894531 631 725.734375 637.101562 738.265625 644.621094 C 743.121094 647.550781 770.679688 666.480469 772.003906 666.660156 C 776.375 665.089844 780.742188 663.511719 785.113281 661.96875 L 790.605469 660.050781 C 827.304688 647.25 827.792969 651 865.3125 653.488281 C 869.597656 642.378906 873.980469 633.121094 880.121094 622.878906 C 885.847656 613.351562 913.203125 575.828125 920.800781 570.351562 C 943.367188 554.070312 971.195312 535.558594 998.40625 528.949219 C 1030.421875 521.210938 1048.398438 523.140625 1080.25 525.378906 C 1098.808594 526.691406 1094.160156 528.269531 1094.890625 510.289062 C 1096.71875 476.78125 1104.128906 470.699219 1111.96875 441.171875 C 1063.25 445.589844 1031.269531 445.539062 1002.601562 400.371094 C 993.632812 385.589844 988.269531 358.671875 1010.449219 384.050781 L 1013.46875 387.480469 C 1031.039062 407.308594 1048.140625 422.980469 1075.851562 424.628906 C 1105.890625 426.421875 1123.871094 418.46875 1147.589844 401.851562 C 1168.601562 387.121094 1196.988281 374.691406 1222.988281 374.621094 C 1228.730469 374.609375 1248.898438 377.390625 1246.941406 385.980469 C 1243.078125 402.929688 1123.410156 392.128906 1123.46875 522.871094 C 1123.710938 531.480469 1121.710938 529.5 1126.929688 533.210938 C 1155.089844 553.261719 1171.609375 560.230469 1190.648438 591.609375 C 1208.671875 625.449219 1209.300781 638.660156 1202.011719 675.828125 C 1199.070312 690.769531 1194.28125 693.511719 1207.75 699.691406 C 1227.039062 708.550781 1228.890625 711.441406 1245.179688 723.800781 C 1254.160156 716.359375 1263.589844 708.199219 1273.109375 701.519531 C 1303.128906 681.511719 1339.238281 678.148438 1373.109375 690 C 1390.140625 695.960938 1416.121094 712.679688 1427.628906 726.761719 C 1448.378906 752.171875 1444.558594 760.230469 1455.589844 786.339844 C 1463.320312 767.941406 1484.558594 749.769531 1500.578125 738.21875 C 1516.378906 728.039062 1535.269531 719.300781 1553.441406 714.398438 C 1563.421875 712.140625 1566.03125 713.949219 1563.679688 704.609375 C 1560.421875 689.859375 1558.398438 674.699219 1559.710938 659.558594 C 1562.488281 627.519531 1587.890625 619.070312 1584.171875 641.519531 C 1579.671875 668.648438 1575.800781 675.53125 1588.28125 702.359375 C 1595.160156 709.988281 1614.558594 709.921875 1624.371094 710.558594 C 1657.351562 712.769531 1658.28125 729.078125 1693.828125 721.800781 C 1737.558594 712.828125 1777.621094 737.71875 1796.871094 776.480469 C 1806.71875 802.039062 1796.230469 811.300781 1815.929688 832.78125 C 1850.351562 870.328125 1861.558594 901 1835.699219 948.230469 C 1831.851562 954.53125 1825.648438 960.660156 1823.210938 966.210938 C 1832.601562 966.808594 1841.308594 967 1850.730469 966.960938 C 1879.058594 966.808594 1914.070312 969.21875 1938.96875 956.261719 C 1971.621094 939.261719 1994.589844 920.820312 2014.78125 889.929688 C 2017.039062 885.789062 2019.320312 883.628906 2022.269531 878.75 C 2025.558594 872.058594 2028.269531 865.988281 2030.609375 858.878906 C 2041.898438 821.800781 2034.039062 784.191406 2001.871094 760.410156 C 1997.949219 757.769531 1994.238281 755.628906 1990.03125 753.429688 C 1968.449219 742.558594 1965.691406 740.011719 1950.320312 756.328125 C 1935.5 772.078125 1913.078125 788.128906 1890.339844 787.390625 C 1883.890625 787.179688 1870.96875 782.289062 1870.800781 775.660156 C 1870.511719 764.960938 1923.398438 769.449219 1938.351562 722.949219 C 1955.351562 670.089844 1919.28125 636.441406 1871.851562 622.410156 C 1844.148438 616.089844 1870.601562 610.148438 1870.46875 582.851562 C 1870.238281 531.789062 1816.570312 504.5 1772.820312 496.519531 C 1740.878906 493.191406 1700.191406 501.089844 1681.800781 530.179688 C 1675.308594 540.429688 1672.949219 546.03125 1684.839844 551.378906 C 1704.769531 560.339844 1713.191406 561.199219 1731.621094 575.609375 C 1745.03125 586.109375 1751.070312 589.210938 1739.851562 603.71875 C 1735.210938 602.609375 1732.601562 601.941406 1728.621094 599.21875 C 1714.101562 589.28125 1706.601562 581.109375 1688.101562 575.96875 C 1635.109375 561.28125 1619.359375 599.898438 1605.191406 597.441406 C 1588.679688 594.589844 1612.71875 514.371094 1570.019531 473.609375 C 1563.21875 467.96875 1557.910156 464.140625 1549.460938 461.199219 C 1508.050781 448.648438 1479.699219 480.320312 1455.929688 509.371094 C 1445.871094 498.46875 1448.898438 490.058594 1455.761719 478.179688 C 1484.460938 432.011719 1522.710938 445.03125 1553.109375 413.960938 C 1569.929688 396.738281 1582.769531 376.839844 1579.601562 352 C 1569.960938 304.039062 1531.429688 280.71875 1485.839844 273.269531 C 1457.621094 268.648438 1417.878906 273.730469 1391.96875 285.871094 C 1375.101562 293.789062 1366.878906 297.328125 1348.570312 302.019531 C 1308.730469 311.851562 1291.640625 292.390625 1307.109375 288.621094 C 1329.128906 282.941406 1342.910156 276.140625 1359.570312 260.410156 C 1389.839844 229.988281 1390.53125 184.109375 1350.929688 162.859375 C 1308.769531 140.230469 1287.179688 186.738281 1276.929688 173.929688 C 1268.769531 163.738281 1284.199219 149.839844 1288.988281 143.121094 C 1303.96875 122.070312 1297 87.648438 1278.878906 69.609375 C 1238.339844 29.261719 1168.179688 54.738281 1162.171875 111.25 C 1159.628906 135.140625 1167.128906 144.558594 1177.601562 164.011719 C 1183.839844 175.988281 1182.628906 189.011719 1167.621094 182.929688 C 1139.460938 171.511719 1140.628906 135.550781 1124.5 125.148438 C 1100.988281 113.339844 1070.601562 118.789062 1048.199219 130.71875 C 1043.5 133.75 1039.109375 137.160156 1035 140.96875 C 1029.808594 145.789062 1028.25 150.011719 1025.328125 152.75 C 1003.859375 174.089844 994.65625 207.441406 997.28125 237.199219 C 1000.929688 278.460938 1017.578125 276.089844 1050.238281 268.800781 C 1086.410156 261.519531 1123.410156 270.859375 1149.539062 297.539062 C 1158.789062 306.980469 1175.558594 332.429688 1174.289062 345.589844 C 1173.890625 349.789062 1161.679688 363.21875 1156.398438 345.878906 C 1151.53125 329.828125 1141.949219 315.460938 1129.320312 304.378906 C 1096.691406 281.46875 1055.898438 282.480469 1024.488281 306.96875 C 1018.71875 311.460938 1003.648438 332.300781 999.777344 319.449219 C 995.21875 304.371094 1011.820312 292.921875 995.03125 291.800781 C 963.597656 289.691406 929.523438 325 913.300781 348.839844 C 890.160156 382.839844 880.816406 429.820312 923.136719 453.878906 C 957.410156 473.371094 965.214844 451.941406 996.5625 455.339844 C 1000.210938 464.96875 989.179688 472.101562 981.621094 475.699219 C 948.238281 491.578125 902.933594 476.160156 883.394531 444.859375 Z M 770.925781 390.03125 C 795.234375 390.960938 815.550781 396.710938 835.148438 411.121094 C 878.074219 442.691406 885.917969 501.550781 854.425781 543.371094 C 845.617188 553.839844 837.238281 561.421875 824.839844 567.511719 C 783.65625 587.710938 740.253906 569.429688 710.648438 538.308594 C 698.40625 525.449219 686.253906 499.621094 696.691406 482.871094 C 705.835938 468.21875 709.929688 491.730469 711.269531 497.199219 C 716.203125 517.488281 728.546875 530.121094 745.804688 541.089844 L 754.253906 545.691406 C 807.953125 571.851562 858.550781 530.339844 851.773438 475.378906 C 847.203125 438.238281 819.316406 412.410156 781.867188 410.898438 C 771.371094 410.480469 747.953125 416.261719 745.71875 405 C 742.894531 390.800781 761.550781 389.671875 770.9375 390.03125 Z M 1346.878906 646.800781 C 1333.671875 647.550781 1340.710938 640.011719 1346.300781 634.238281 C 1349.21875 631.320312 1352.058594 628.5 1355.058594 625.660156 C 1377.621094 604.441406 1380.789062 602.171875 1391.308594 572.339844 C 1401.398438 543.699219 1394.019531 510.699219 1367.660156 493.871094 C 1342.929688 478.078125 1320.488281 486.640625 1298.519531 501.609375 C 1283.511719 511.839844 1288.519531 515.789062 1275.171875 508.71875 C 1275.960938 501.171875 1277.230469 497.988281 1282.828125 492.171875 C 1297.03125 477.339844 1312.089844 469.859375 1332.058594 466.859375 C 1370.929688 461.019531 1407.789062 493.359375 1416.011719 530.058594 C 1424.921875 569.828125 1387.730469 638.089844 1346.890625 646.820312 Z M 1556.710938 628.921875 C 1544.070312 657.691406 1445.628906 604.078125 1469.851562 529.980469 C 1473.800781 517.890625 1476.351562 510.480469 1489.570312 515.691406 C 1485.339844 542.851562 1478.050781 557.851562 1494.148438 583.441406 C 1517.171875 620.078125 1532.238281 606.269531 1555.230469 623.140625 L 1557.269531 625.851562 L 1556.730469 628.921875 Z M 1826.300781 635.109375 C 1809.640625 647.03125 1790.121094 634.011719 1778.148438 622.03125 C 1769.039062 609.320312 1754.890625 573.03125 1776.511719 566.53125 C 1785.949219 563.691406 1783.128906 568.949219 1784.058594 576.359375 C 1787.519531 601.578125 1791.199219 615.140625 1817.660156 621.371094 C 1823.671875 623.121094 1836.199219 628.03125 1826.308594 635.109375 Z M 885.53125 692.148438 C 865.386719 671.460938 831.15625 672.320312 805.414062 679.820312 C 780.644531 687.640625 758.683594 707.710938 750.476562 729.121094 L 743.007812 753.511719 C 739.574219 764.199219 740.183594 778.191406 741.25 789.289062 C 744.21875 813.320312 751.183594 817.96875 756.015625 838.089844 C 747.089844 843.941406 743.238281 846.179688 735.652344 837.308594 C 712.007812 806.320312 713.273438 760.929688 725.820312 725.75 C 729.480469 715.871094 738.8125 704.738281 740.226562 697.75 C 734.960938 684.191406 711.847656 668.691406 694.371094 660.628906 C 638.046875 638.671875 560.644531 632.5 516.707031 682.03125 C 474.488281 731.949219 492.769531 773.449219 539.21875 810.300781 C 558.035156 824.21875 557.414062 826.550781 579.402344 821.941406 C 603.039062 817.429688 613.867188 819.691406 637.152344 822.398438 C 658.640625 829.351562 681.019531 839.628906 696.707031 851.761719 C 707.421875 860.140625 716.519531 867.710938 723.800781 879.460938 C 731.285156 891.53125 733.707031 898.800781 733.476562 912.601562 C 732.796875 952.828125 684.480469 964.230469 690.390625 942.53125 C 698.78125 921.179688 716.261719 929.828125 712.671875 902.53125 C 706.972656 884.449219 698.726562 873.199219 682.664062 863.089844 C 672.640625 853.648438 652.46875 847.390625 636.550781 843.53125 L 632.714844 842.761719 C 590.25 834.261719 534.964844 853 524.8125 899.429688 C 521.253906 915.710938 524.871094 954.929688 536.796875 965.730469 C 538.164062 966.410156 885.546875 966.910156 919.113281 967.019531 C 933.214844 967.78125 947.101562 967.921875 961.1875 968.378906 C 969.105469 968.640625 976.140625 971.769531 970.128906 964.359375 C 946.957031 934.328125 932.8125 893.921875 950.53125 857.730469 C 956.445312 845.628906 968.371094 836.53125 965.746094 824.621094 C 960.972656 802.960938 955.898438 802.949219 957.269531 777.378906 C 961.476562 754.171875 971.167969 736.191406 987.820312 719.480469 C 1017.121094 690.058594 1073.5 667.210938 1114.808594 672.941406 L 1118.25 673.691406 C 1129.449219 676.128906 1156.011719 693.648438 1163.308594 689.25 C 1179.269531 679.628906 1178.261719 644.351562 1175.449219 628.261719 C 1170.488281 603.128906 1149.449219 581.039062 1126.648438 570.46875 C 1120.511719 566.148438 1115.921875 564.050781 1108.761719 561.738281 C 1046.191406 541.5 964.621094 565.429688 923.957031 617.238281 C 917.398438 625.589844 894.167969 663.460938 895.089844 671.699219 C 895.320312 673.769531 913.289062 692.28125 915.625 694.199219 C 918.25 696.359375 920.671875 703.800781 922.183594 707.210938 C 927.492188 719.941406 929.796875 724.109375 930.289062 738.449219 C 930.75 751.980469 932.0625 759.628906 917.527344 763.199219 C 913.1875 753.421875 912.871094 745.78125 911.226562 735.46875 C 903.855469 709.710938 903.382812 710.550781 885.546875 692.21875 Z M 794.703125 864.300781 C 805.011719 857.898438 846.136719 870.839844 879.097656 844.058594 C 885.660156 838.71875 910.535156 811.921875 914.425781 811.769531 C 922.976562 811.441406 897.945312 843.25 896.761719 845.210938 C 880.988281 871.121094 919.457031 917.160156 860.0625 950.300781 C 852.03125 953.761719 827.304688 964.808594 823.714844 951.148438 C 823.496094 947.578125 823.253906 945.179688 825.398438 942.050781 C 828.296875 937.839844 850.042969 928.28125 857.09375 923.988281 C 874.355469 913.449219 878.5625 894.441406 876.472656 875.441406 C 871.066406 874.929688 868.515625 875.28125 863.265625 876.648438 C 845.011719 881.421875 823.65625 888.070312 805.054688 881.148438 C 798.953125 878.878906 786.941406 869.109375 794.699219 864.289062 Z M 1014.800781 728.058594 C 991.3125 748.230469 964.867188 785.988281 985.152344 816.820312 C 1002.730469 843.53125 1026.96875 837.859375 1053.910156 840.730469 C 1062.171875 841.609375 1062.441406 839.808594 1060.421875 845.761719 C 1055.21875 861.101562 1032.320312 861.050781 1019.339844 858.578125 C 998.203125 854.589844 984.042969 837.371094 976.601562 860.601562 C 961.5625 907.53125 981.808594 942.011719 1023.601562 963.800781 C 1038.878906 969.550781 1123 966.269531 1143.878906 966.058594 C 1177.28125 965.660156 1221.78125 962.988281 1253.988281 967.261719 C 1254.601562 940.46875 1252.871094 919.628906 1264.109375 894.25 C 1292.890625 831.410156 1343.78125 801.230469 1412.621094 803.988281 C 1431.679688 804.75 1429.261719 810.019531 1428.941406 794.308594 C 1428.421875 768.261719 1422.78125 756.558594 1406.269531 737.398438 C 1370.398438 695.800781 1312.519531 696.089844 1272.460938 731.101562 C 1259.140625 743.320312 1260.878906 744.421875 1262.96875 760.238281 C 1265.339844 778.179688 1254.699219 795.699219 1246.300781 774.101562 C 1239.609375 756.910156 1242.121094 759.320312 1230.261719 745.070312 C 1211.511719 722.519531 1189.640625 712.011719 1159.628906 712.828125 C 1135.5 713.488281 1122.410156 724.488281 1106.941406 725.949219 C 1100.109375 726.578125 1099.511719 726.351562 1099.898438 720.890625 C 1100.871094 707.351562 1121.238281 700.300781 1108.640625 696.101562 C 1083.28125 687.648438 1034.988281 712.5 1014.789062 728.058594 Z M 1193.328125 855.769531 C 1158.710938 870.738281 1111.601562 858.148438 1086.648438 830.03125 C 1076.558594 817.769531 1064.75 794.929688 1069.558594 778.738281 C 1070.660156 775.058594 1075.621094 770.019531 1078.550781 772.261719 C 1082.269531 775.121094 1087.941406 809.910156 1117.019531 831.300781 C 1143.941406 849.050781 1165.480469 838.800781 1192.941406 837.140625 C 1216.980469 835.679688 1207 849.871094 1193.328125 855.78125 Z M 1573.941406 448.839844 C 1610.660156 477.851562 1614.320312 488.449219 1620.390625 533.609375 C 1621.660156 543 1620.261719 557.421875 1632.589844 555.148438 C 1645.039062 552.859375 1662.949219 515.28125 1672.199219 503.460938 C 1691.320312 480.679688 1723.308594 471.359375 1752.148438 471.351562 C 1797.75 471.488281 1803.039062 474.011719 1843.441406 493.910156 C 1846.441406 471.371094 1847.578125 454.480469 1834.339844 434.808594 C 1818.628906 415.378906 1803.140625 408.058594 1778.21875 408.261719 C 1752.859375 408.460938 1753 412.28125 1765.53125 385.71875 C 1770.929688 373.109375 1772.691406 362.609375 1770.480469 348.941406 C 1762.429688 299.210938 1711.449219 265.769531 1662.941406 271.160156 L 1656.289062 272.339844 C 1638.570312 275.488281 1612.558594 287.671875 1602.539062 302.679688 C 1590.929688 320.089844 1639.648438 367.511719 1581.839844 429.140625 C 1570.191406 440.058594 1563.128906 439.96875 1573.929688 448.839844 Z M 1880.230469 523.960938 C 1878.839844 532.378906 1882.519531 543.410156 1884.828125 551.53125 C 1889.960938 569.570312 1890.191406 570.71875 1892.078125 589.25 C 1893.808594 599.851562 1898.761719 604.179688 1907.488281 609.890625 C 1932.398438 626.210938 1946.710938 633.589844 1957.851562 664.421875 C 1963.371094 680.820312 1966.601562 695.46875 1965.101562 712.929688 C 1964.230469 721.621094 1962.53125 723.269531 1971.050781 722.988281 C 1994.988281 721.808594 2014.488281 740.378906 2033.910156 752.21875 C 2045.910156 758.898438 2065.929688 755.671875 2079.140625 753.878906 C 2112.019531 751.570312 2146.738281 706.949219 2129.550781 665.300781 C 2119.160156 643.769531 2100.148438 624.96875 2075.640625 621.539062 C 2059.109375 619.21875 2020.828125 635.960938 2014 624.089844 C 2006.421875 610.941406 2045.550781 601.609375 2052.808594 599.03125 C 2077.570312 590.21875 2076.429688 553.089844 2068.53125 532.789062 C 2052.109375 490.578125 2010.761719 472.671875 1967.839844 475.671875 C 1942.851562 478.410156 1914.980469 488.21875 1897.039062 506.371094 C 1892.238281 510.898438 1882.128906 518.199219 1880.230469 523.960938 Z M 1750.621094 877.398438 C 1763.859375 892.769531 1672.640625 916.570312 1637.140625 834.28125 C 1633.601562 824.640625 1632.039062 814.46875 1634.921875 804.378906 C 1642.328125 778.480469 1654.488281 822.199219 1656.679688 827.789062 C 1682.480469 893.839844 1737.730469 862.429688 1750.621094 877.398438 Z M 1780.988281 820.96875 C 1790.210938 767.28125 1734.261719 722.621094 1684.511719 746.210938 C 1678.640625 749.269531 1646.890625 773.5 1644.5 765.671875 C 1641.789062 756.808594 1658.828125 743.828125 1639.570312 736.03125 C 1605.511719 722.230469 1558.148438 737.339844 1527.378906 753.949219 C 1516.800781 760.570312 1504.410156 768.851562 1500.761719 777.050781 C 1491.851562 786.578125 1482.148438 798.550781 1477.101562 810.648438 C 1475.101562 815.441406 1471.808594 821.449219 1475.570312 824.941406 C 1492.039062 840.179688 1506.039062 852.160156 1517.070312 872.390625 C 1537.890625 910.589844 1526.171875 929.980469 1528.910156 967.308594 C 1542.910156 963.359375 1661.578125 966.539062 1686.488281 966.539062 C 1708.839844 966.539062 1743 968.078125 1763.890625 965.269531 C 1773.519531 963.96875 1766.628906 965.890625 1777.191406 957.808594 L 1779.121094 956.359375 C 1795.578125 944.011719 1792.148438 945.441406 1803 930.160156 C 1808.109375 922.929688 1803.949219 930.820312 1807.710938 922.820312 C 1816.878906 902.441406 1821.039062 883.988281 1805.609375 865.140625 C 1780.71875 834.761719 1774.5 858.878906 1781.019531 820.988281 Z M 1497.871094 957.988281 C 1506.828125 909.128906 1496.398438 864.871094 1450.710938 838.808594 C 1393.738281 811.460938 1321.878906 833.449219 1295.339844 892.230469 C 1286.429688 914.828125 1277.75 941.199219 1284.300781 965.371094 C 1319.011719 967.53125 1358.648438 967.03125 1393.601562 967.109375 C 1413.398438 967.160156 1477.320312 968.320312 1494.421875 964.730469 L 1497.878906 957.988281 Z M 500.097656 955.679688 C 493.464844 925.28125 492.3125 933.011719 497.273438 901.039062 C 499.191406 888.71875 502.101562 886.769531 491.808594 882.699219 C 433.550781 859.691406 381.453125 902.269531 380.605469 963.308594 C 403.964844 969.308594 474.863281 966.910156 501.496094 965.199219 C 501.164062 961.589844 500.878906 959.238281 500.097656 955.679688 Z M 354.476562 960.839844 C 356.597656 941.089844 354.476562 943.550781 363.519531 926.539062 C 377.519531 900.179688 373.582031 895.898438 361.066406 872.570312 C 352.863281 857.28125 362.105469 842.699219 372.890625 856.171875 C 388.777344 877.300781 384.527344 885.828125 411.792969 872.03125 C 457.503906 848.921875 462.347656 855.449219 510.046875 863.058594 C 513.507812 858.640625 515.136719 855.550781 517.359375 850.429688 C 508.332031 839.128906 500.257812 831.230469 490.03125 821.191406 C 457.085938 788.820312 451.574219 744.898438 467.683594 702.71875 C 477.761719 680.328125 489.960938 678.441406 472.859375 658.738281 C 429.976562 609.351562 373.566406 598.421875 319.96875 638.890625 C 298.371094 659.808594 287.929688 684.101562 292.398438 714.359375 L 293.050781 718.21875 C 297.070312 736 302.492188 750.550781 313.886719 765.039062 C 337.777344 794.328125 360.199219 802.671875 397.085938 806.121094 C 408.851562 806.800781 429.3125 804.410156 438.28125 812.640625 C 425.59375 829.609375 400.980469 828.230469 382.089844 825.730469 C 307.25 814.730469 272.023438 770.550781 268.765625 696.421875 L 271.765625 673.101562 C 272.644531 668.328125 276.882812 659.121094 273.191406 658.21875 C 240.675781 650.359375 226.414062 634.269531 208.984375 607.550781 C 205.796875 602.660156 198.601562 587.578125 193.597656 587.179688 C 127.558594 581.699219 75.992188 621.308594 54.550781 682.398438 C 41.90625 730.328125 51.8125 784.621094 94.839844 813.820312 C 110.007812 823.398438 127.960938 828.460938 145.710938 830.269531 C 186.214844 834.410156 185.769531 819.03125 216.0625 810.371094 C 229.691406 806.480469 234.707031 812.441406 226.820312 822.699219 C 214.1875 839.160156 194.550781 848.570312 174.433594 851.761719 C 142.292969 856.851562 128.421875 852.160156 98.832031 842.910156 C 95.429688 841.851562 87.988281 838 86.503906 840.828125 C 73.222656 866.261719 74.941406 907.730469 91.914062 931.640625 C 109.058594 955.789062 116.902344 965.121094 147.542969 965.960938 C 211.59375 966.21875 275.574219 965.589844 339.609375 965.46875 C 350.09375 965.460938 353.625 968.628906 354.460938 960.839844 Z M 198.070312 909.308594 C 186.171875 928.109375 168.738281 916.390625 178.589844 891.539062 C 192.894531 855.449219 245.898438 806.238281 287.226562 825.03125 C 296.238281 830.621094 292.574219 835.449219 284.429688 837.890625 C 264.746094 843.769531 252.113281 844.160156 233.484375 857.570312 C 206.894531 876.71875 212.128906 887.089844 198.085938 909.308594 Z M 298.082031 623.488281 C 337.085938 593.230469 381.742188 582.921875 429.140625 599.320312 C 468.707031 612.988281 463.949219 632.308594 454.75 587.308594 C 443.054688 530.078125 466.34375 490.730469 514.042969 461.011719 L 518.179688 456.96875 C 519.132812 454.359375 511.992188 437.648438 510.726562 430.828125 C 506.902344 407.890625 505.777344 393.859375 510.59375 370.800781 C 512.816406 360.140625 522.894531 341.339844 505.144531 346.820312 C 462.578125 359.960938 478.714844 435.171875 449.414062 383.199219 C 415.671875 323.339844 341.917969 309.140625 282.25 336.871094 C 244.382812 356.128906 217.476562 407.871094 237.765625 448.738281 C 257.980469 489.460938 294.648438 474.71875 325.738281 461.601562 C 350.800781 452.410156 338.253906 475.039062 326.761719 484.890625 C 288.234375 517.890625 257.417969 485.78125 234.449219 507.910156 C 200.707031 540.429688 222.035156 595.988281 256.46875 620.199219 C 274.289062 632.730469 280.203125 637.339844 298.066406 623.480469 Z M 436.984375 442.589844 C 416.78125 467.320312 369.140625 468.300781 343.273438 451.589844 C 335.066406 446.28125 317.460938 426.78125 327.859375 418.800781 C 339.421875 418.640625 356.148438 437.171875 379.839844 439.050781 C 405.519531 441.078125 406.515625 438.578125 426.285156 427.289062 C 440.804688 418.988281 444.367188 433.578125 437 442.589844 L 436.984375 442.589844 "/>
<path fill-rule="evenodd" fill="rgb(100%, 89.0625%, 69.334412%)" fill-opacity="1" d="M 1669.371094 2704.296875 C 1729.5 2359.527344 1789.960938 2014.804688 1850.609375 1670.121094 C 1867.578125 1573.621094 1888.53125 1474.609375 1902.398438 1378.199219 C 1908.398438 1336.378906 1919.609375 1281.878906 1921.480469 1241.269531 C 1895.390625 1239.078125 1870.550781 1236.839844 1844.550781 1233.339844 C 1832.570312 1231.730469 1805.609375 1223.71875 1798.710938 1234.320312 C 1792.699219 1243.578125 1580.089844 2608.96875 1569.691406 2803.777344 C 1569.238281 2812.066406 1615.871094 2800.863281 1621.601562 2799.636719 C 1649.308594 2793.683594 1653.941406 2800.257812 1658.300781 2771.476562 C 1661.789062 2749.039062 1665.480469 2726.675781 1669.378906 2704.296875 Z M 1268.089844 1604.171875 C 1262.570312 1741.929688 1257.421875 1877.789062 1254.089844 2015.695312 C 1247.269531 2236.355469 1240.46875 2457.019531 1233.640625 2677.679688 C 1232.121094 2719.609375 1230.140625 2761.554688 1228.988281 2803.488281 C 1228.679688 2814.675781 1224.140625 2839.261719 1234.089844 2845.144531 C 1241.171875 2849.328125 1378.558594 2836.925781 1387.761719 2832.3125 C 1392.789062 2822.996094 1399.039062 2737.359375 1400.160156 2723.085938 C 1426.53125 2389.1875 1454.640625 2055.4375 1483.328125 1721.730469 C 1493.269531 1606.691406 1505.21875 1491.660156 1512.128906 1376.398438 C 1514.589844 1335.128906 1518.238281 1296.671875 1521.601562 1255.71875 C 1524.890625 1222.539062 1532.261719 1210.621094 1494.929688 1214.929688 C 1425.058594 1225.078125 1400.488281 1235.980469 1328.289062 1214.960938 C 1289.488281 1203.671875 1282.921875 1195.761719 1279.988281 1235.949219 C 1272.511719 1357.539062 1272.640625 1482.121094 1268.109375 1604.171875 Z M 736.074219 1261.160156 C 761.539062 1519.410156 780.773438 1777.671875 802.199219 2036.230469 C 812.84375 2164.632812 824.894531 2294.078125 834.328125 2422.46875 C 841.347656 2517.289062 849.4375 2612.734375 858.191406 2707.394531 L 858.507812 2710.941406 C 859.214844 2718.832031 859.847656 2726.730469 860.511719 2734.636719 C 861.78125 2752.441406 862.660156 2770.292969 864.117188 2788.085938 C 865.730469 2807.726562 864.261719 2833.871094 884.320312 2842.894531 C 899.617188 2849.789062 1008.601562 2853.335938 1024.621094 2847.539062 C 1034.5 2843.960938 1028.210938 2786.558594 1027.851562 2775.84375 C 1012.210938 2304.027344 1000.148438 1831.851562 986.207031 1359.941406 C 985.515625 1329.269531 985.441406 1298.621094 984.460938 1267.960938 C 983.511719 1238.339844 991.800781 1229.550781 959.835938 1228.769531 C 901.984375 1227.359375 874.816406 1231.289062 816.214844 1216.140625 C 751.921875 1198.21875 728.144531 1180.738281 736.058594 1261.160156 Z M 574.113281 2115.421875 C 531.71875 1868.828125 492.253906 1622.949219 451.921875 1376.109375 C 446.269531 1339.039062 439.246094 1301.730469 434.980469 1264.519531 C 431.347656 1232.878906 437.761719 1233.140625 405.332031 1237.738281 C 345.507812 1246.21875 319.96875 1242.441406 261.441406 1236.988281 C 264.324219 1267.328125 271.605469 1297.96875 275.933594 1328.390625 C 284.222656 1388.46875 300.433594 1451.679688 312.949219 1511.449219 C 324.902344 1569.101562 337.070312 1626.691406 349.3125 1684.269531 C 422.003906 2026.0625 489.832031 2369.132812 563.542969 2710.496094 C 567.625 2729.414062 578.8125 2788.390625 585.214844 2804.296875 C 589.324219 2812.183594 632.699219 2818.253906 642.417969 2819.808594 C 675.597656 2825.132812 690.273438 2832.628906 684.261719 2793.464844 C 681.636719 2776.449219 678.925781 2759.449219 676.144531 2742.464844 C 641.941406 2533.527344 609.945312 2323.996094 574.085938 2115.421875 Z M 1893.21875 1013.558594 C 1345.109375 1013.960938 796.835938 1014.539062 248.722656 1013.5 C 216.46875 1013.429688 179.078125 1011.539062 147.414062 1014.140625 C 128.453125 1015.691406 123.707031 1018.058594 112.371094 1028.949219 C 79.0625 1060.910156 90.382812 1111.421875 114.898438 1137.078125 C 122.234375 1144.761719 131.21875 1154.25 140.808594 1161 C 150.773438 1168.011719 160.492188 1172.589844 172.703125 1178.921875 L 175.746094 1180.359375 C 217.722656 1200.339844 285.464844 1214.730469 331.953125 1214.089844 C 410.480469 1211.289062 487.726562 1196.511719 557.125 1158.109375 C 579.171875 1145.921875 599.316406 1127.039062 617.414062 1117.269531 C 638.914062 1105.640625 673.074219 1128.109375 691.515625 1139 C 720.816406 1155.550781 749.480469 1169.171875 781.363281 1180.109375 C 889.40625 1217.128906 1017.121094 1210.390625 1116.300781 1151.660156 C 1128.089844 1144.679688 1171.359375 1113.398438 1181.160156 1114.089844 C 1190.589844 1114.761719 1239.558594 1150.03125 1252.820312 1157.769531 L 1257.691406 1160.519531 C 1360.398438 1217.019531 1493.640625 1208.371094 1591.160156 1144.199219 C 1621.839844 1124 1621.480469 1111.46875 1654.46875 1131.148438 C 1687.21875 1150.671875 1711.691406 1166.058594 1748.039062 1179.371094 C 1834.429688 1210.5 1951.109375 1233.398438 2014.28125 1146.980469 C 2039.199219 1112.898438 2061.550781 1031.320312 2007.738281 1015.019531 C 1989.019531 1009.351562 1917.96875 1013.550781 1893.230469 1013.558594 Z M 1102.050781 1089.25 C 1132.691406 1099.730469 1076.910156 1130.199219 1067.78125 1134.628906 C 968.542969 1182.699219 870.246094 1177.289062 770.246094 1135.578125 C 757.570312 1130.078125 742.75 1116.488281 766.484375 1119.921875 C 857.613281 1133.691406 914.859375 1153.828125 1006.488281 1120.78125 C 1027.578125 1113.179688 1082.71875 1082.628906 1102.050781 1089.25 Z M 508.316406 1103.148438 C 521.683594 1103.480469 531.964844 1117.019531 529.339844 1131.160156 L 499.953125 1147.460938 C 483.515625 1155.289062 464.984375 1161.910156 446.804688 1166.070312 C 400.199219 1176.730469 339.164062 1177.710938 293.898438 1170.539062 C 244.816406 1162.769531 236.65625 1150.359375 225.867188 1147.429688 C 220.402344 1134.519531 218.15625 1130.820312 229.34375 1120.308594 C 256.019531 1122.628906 294.648438 1175.871094 470.0625 1114.121094 C 478.773438 1111.050781 499.058594 1102.921875 508.316406 1103.148438 Z M 1458.308594 1127.570312 C 1472.339844 1124.808594 1516.960938 1112.53125 1528.289062 1120.210938 C 1549.171875 1136.628906 1506.550781 1152.359375 1495.730469 1155.980469 C 1417.070312 1182.300781 1318.109375 1172.269531 1249.550781 1125.109375 C 1230.410156 1110.75 1237.121094 1114.539062 1253.890625 1119.078125 C 1342.800781 1142.929688 1369.128906 1145.171875 1458.328125 1127.570312 Z M 1726.460938 1153.390625 C 1716.289062 1149.039062 1679.179688 1129.539062 1676.28125 1118.449219 C 1678.691406 1117.03125 1719.878906 1134.898438 1725.769531 1137.128906 C 1755.839844 1148.050781 1788.058594 1154.320312 1820.160156 1152.480469 C 1893.941406 1148.238281 1895.96875 1109.941406 1943.109375 1077.371094 C 2028.699219 1018.199219 1991.050781 1263.898438 1726.46875 1153.390625 L 1726.460938 1153.390625 "/>
<path fill-rule="evenodd" fill="rgb(100%, 6.272888%, 0.389099%)" fill-opacity="1" d="M 538.109375 2695.859375 C 510.363281 2568.609375 486.183594 2440.261719 457.171875 2313.242188 C 442.796875 2250.328125 431.433594 2187.53125 417.433594 2124.792969 C 386.070312 1984.203125 358.210938 1843.738281 329.085938 1702.789062 C 305.203125 1592.898438 282.769531 1483.371094 260.117188 1373.25 C 256.554688 1356.578125 252.949219 1339.929688 249.328125 1323.289062 C 246.199219 1308.941406 233.382812 1244.558594 228.867188 1234.648438 C 227.699219 1232.101562 201.269531 1226.910156 196.886719 1225.839844 C 197.203125 1232.070312 197.808594 1237.910156 198.632812 1244.078125 C 208.609375 1319.011719 227.121094 1395.71875 240.417969 1470.441406 C 260.445312 1584.46875 292.171875 1692.441406 313.898438 1806.820312 C 318.328125 1830.128906 324.382812 1854.421875 327.222656 1876.390625 L 359.25 2043.09375 C 368.089844 2076.101562 385.21875 2172.378906 391.359375 2208.082031 L 411.792969 2318.621094 C 416.96875 2351.238281 422.609375 2385.816406 429.804688 2417.957031 C 439.105469 2459.457031 446.039062 2501.632812 454.027344 2543.433594 C 461.410156 2582.0625 468.765625 2620.695312 476.164062 2659.308594 C 477.71875 2667.210938 479.421875 2675.011719 481.152344 2682.871094 C 486.976562 2709.386719 489.328125 2731.160156 493.523438 2757.476562 C 501.050781 2804.730469 499.953125 2798.644531 543.082031 2807.28125 C 547.554688 2808.175781 559.289062 2812.789062 560.257812 2807.339844 C 560.804688 2804.238281 540.601562 2707.511719 538.109375 2695.863281 Z M 630.507812 2309.867188 C 655.425781 2439.179688 673.996094 2572.820312 694.3125 2703.1875 C 696.40625 2717.707031 698.019531 2732.242188 699.9375 2746.777344 C 703.859375 2777.519531 704.925781 2807.800781 734.847656 2824.539062 C 750.21875 2832.226562 826.828125 2845.246094 840.023438 2837.054688 C 851.515625 2829.917969 835.785156 2698.730469 833.679688 2678.558594 C 831.371094 2652.574219 829.066406 2626.589844 826.757812 2600.605469 C 822.171875 2575.445312 824.0625 2541.445312 820.253906 2526.59375 L 812.597656 2422.554688 C 812.105469 2402.972656 807.203125 2386.652344 805.878906 2367.472656 C 804.394531 2345.960938 803.5 2328.871094 801.078125 2307.949219 C 793.996094 2246.914062 792.382812 2193.820312 785.546875 2134.355469 C 781.105469 2095.738281 778.105469 2057.570312 775.800781 2017.703125 C 773.476562 1977.570312 769.066406 1939.375 766.441406 1899.78125 L 756.492188 1782.429688 C 751.375 1738.421875 747.292969 1694.191406 744.292969 1649.980469 C 740.183594 1589.71875 735.527344 1529.519531 730.738281 1469.300781 C 728.042969 1434.28125 725.722656 1399.210938 723.011719 1364.171875 C 720.085938 1325.699219 716.710938 1249.378906 707.453125 1215.390625 C 700.90625 1191.351562 666.789062 1166.71875 642.378906 1164.859375 C 624.296875 1163.488281 550.050781 1196.511719 528.867188 1205.308594 C 510.84375 1212.558594 477.878906 1224.359375 461.570312 1232.941406 C 458.113281 1237.898438 464.324219 1273.148438 465.089844 1282.011719 C 468.578125 1320.148438 473.597656 1357.488281 479.539062 1395.308594 C 509.835938 1588.421875 544.859375 1781.828125 576.234375 1974.992188 C 584.222656 2024.21875 591.144531 2078.019531 600.675781 2126.367188 C 603.921875 2142.804688 604.484375 2167.144531 608.519531 2180.988281 C 619.421875 2218.332031 622.894531 2270.285156 630.523438 2309.882812 Z M 1032.261719 2074.929688 C 1034.960938 2139.820312 1036.289062 2206.4375 1037.398438 2271.671875 L 1041 2417.148438 C 1041.128906 2432.894531 1043.511719 2447.558594 1043.859375 2463.046875 C 1045.339844 2528.566406 1046.25 2592.835938 1048.761719 2658.183594 C 1048.921875 2662.121094 1049.089844 2666.058594 1049.25 2670.007812 C 1050.289062 2694.96875 1051.339844 2719.910156 1052.378906 2744.871094 C 1052.808594 2760.71875 1054.550781 2832.328125 1058.199219 2842.003906 C 1061.890625 2851.792969 1142.871094 2847.367188 1155.761719 2846.832031 C 1198.421875 2845.144531 1204.5 2853.292969 1204.890625 2807.757812 C 1204.921875 2753.929688 1209.609375 2700.894531 1210.570312 2647.210938 C 1211.089844 2510.902344 1219.570312 2381.054688 1222.339844 2247.734375 L 1233.601562 1848.261719 C 1234.109375 1827.421875 1234.828125 1806.640625 1235.710938 1785.820312 C 1237.980469 1731.820312 1239.238281 1676.261719 1242.121094 1622.589844 C 1244.601562 1576.320312 1245.480469 1532.28125 1246.871094 1486.128906 C 1249.589844 1404.671875 1254.679688 1323.589844 1257 1242.019531 C 1258.160156 1201.371094 1262.28125 1196.699219 1224.308594 1179.25 C 1195.820312 1166.160156 1186.578125 1153.890625 1156.988281 1165.058594 C 1116.039062 1180.539062 1087.390625 1203.160156 1042.820312 1215.488281 C 1010.488281 1224.441406 1012.578125 1219.109375 1011.511719 1250.660156 C 1008.871094 1327.800781 1012.089844 1415.199219 1015.039062 1492.921875 C 1017.519531 1554.03125 1017.929688 1614.648438 1020.308594 1675.480469 C 1025.53125 1808.789062 1026.808594 1941.898438 1032.25 2074.917969 Z M 1489.5 1965.964844 C 1467.609375 2225.757812 1445.019531 2484.617188 1424.921875 2744.628906 C 1423.421875 2759.277344 1416.28125 2812.902344 1422.210938 2823.257812 C 1429.058594 2835.238281 1522.28125 2820.316406 1536.089844 2808.722656 C 1538.71875 2799.925781 1540.070312 2787.828125 1541.328125 2778.671875 C 1551.898438 2700.75 1557.390625 2626.761719 1571.03125 2548.453125 C 1629.859375 2209.695312 1657.238281 1867.289062 1719.050781 1528.558594 C 1727.351562 1483.039062 1759.949219 1257 1757.328125 1239.238281 C 1754.609375 1220.851562 1716.648438 1201.691406 1701.660156 1193.078125 C 1674.351562 1177.390625 1650.238281 1158.949219 1617.488281 1169.578125 C 1565.109375 1186.578125 1555.859375 1190.53125 1550.339844 1246.660156 C 1532.949219 1423.351562 1517.949219 1601.929688 1504.53125 1778.96875 C 1499.800781 1841.339844 1494.738281 1903.660156 1489.488281 1965.976562 L 1489.5 1965.964844 "/>
</svg>
