<?xml version="1.0" encoding="utf-8"?>
<svg viewBox="317.66644287109375 -5.563741683959961 336.800048828125 336.8000183105469" width="336.800048828125" height="336.8000183105469" xmlns="http://www.w3.org/2000/svg"><g transform="matrix(1, 0, 0, 1, -663.8335571289062, -122.76374053955078)"><path d="M 1262.000023 285.600006 A 112.099998 112.099998 0 0 1 1149.900024 397.700005 A 112.099998 112.099998 0 0 1 1037.800026 285.600006 A 112.099998 112.099998 0 0 1 1149.900024 173.500008 A 112.099998 112.099998 0 0 1 1262.000023 285.600006 Z" class="st18" style="fill: rgb(53, 53, 53);" transform="matrix(1, 0, 0, 1, 0, 0)"/><path class="st31" d="M1149.9,369.8c-46.4,0-84.2-37.8-84.2-84.2c0-46.4,37.8-84.2,84.2-84.2s84.2,37.8,84.2,84.2&#10;&#9;&#9;&#9;&#9;C1234,332,1196.3,369.8,1149.9,369.8z" style="fill: rgb(71, 71, 71);" transform="matrix(1, 0, 0, 1, 0, 0)"/><path class="st32" d="M1149.9,130.4c-85.7,0-155.2,69.5-155.2,155.2c0,85.7,69.5,155.2,155.2,155.2s155.2-69.5,155.2-155.2&#10;&#9;&#9;&#9;&#9;C1305.1,199.9,1235.6,130.4,1149.9,130.4z M1221,204c16.8-9.7,38.2-3.9,47.9,12.8c9.7,16.8,3.9,38.2-12.8,47.9&#10;&#9;&#9;&#9;&#9;c-16.8,9.7-38.2,3.9-47.9-12.8C1198.5,235.2,1204.2,213.7,1221,204z M1078.8,367.1c-16.8,9.7-38.2,3.9-47.9-12.8&#10;&#9;&#9;&#9;&#9;s-3.9-38.2,12.8-47.9c16.8-9.7,38.2-3.9,47.9,12.8C1101.3,336,1095.5,357.4,1078.8,367.1z M1091.6,251.9&#10;&#9;&#9;&#9;&#9;c-9.7,16.8-31.1,22.5-47.9,12.8c-16.8-9.7-22.5-31.1-12.8-47.9s31.1-22.5,47.9-12.8S1101.3,235.2,1091.6,251.9z M1149.9,423&#10;&#9;&#9;&#9;&#9;c-19.4,0-35.1-15.7-35.1-35.1c0-19.4,15.7-35.1,35.1-35.1s35.1,15.7,35.1,35.1C1184.9,407.3,1169.2,423,1149.9,423z&#10;&#9;&#9;&#9;&#9; M1149.9,218.3c-19.4,0-35.1-15.7-35.1-35.1c0-19.4,15.7-35.1,35.1-35.1s35.1,15.7,35.1,35.1&#10;&#9;&#9;&#9;&#9;C1184.9,202.6,1169.2,218.3,1149.9,218.3z M1268.9,354.3c-9.7,16.8-31.1,22.5-47.9,12.8c-16.8-9.7-22.5-31.1-12.8-47.9&#10;&#9;&#9;&#9;&#9;c9.7-16.8,31.1-22.5,47.9-12.8C1272.8,316.1,1278.6,337.5,1268.9,354.3z" style="fill: rgb(224, 154, 83);" transform="matrix(1, 0, 0, 1, 0, 0)"/><path class="st33" d="M1149.9,117.2c-92.9,0-168.4,75.6-168.4,168.4c0,92.9,75.6,168.4,168.4,168.4&#10;&#9;&#9;&#9;&#9;c92.9,0,168.4-75.6,168.4-168.4C1318.3,192.7,1242.7,117.2,1149.9,117.2z M1149.9,440.8c-85.7,0-155.2-69.5-155.2-155.2&#10;&#9;&#9;&#9;&#9;c0-85.7,69.5-155.2,155.2-155.2s155.2,69.5,155.2,155.2C1305.1,371.3,1235.6,440.8,1149.9,440.8z" style="fill: rgb(204, 134, 70);" transform="matrix(1, 0, 0, 1, 0, 0)"/><path d="M 1183.300026 285.600006 A 33.400002 33.400002 0 0 1 1149.900024 319.000008 A 33.400002 33.400002 0 0 1 1116.500023 285.600006 A 33.400002 33.400002 0 0 1 1149.900024 252.200005 A 33.400002 33.400002 0 0 1 1183.300026 285.600006 Z" class="st34" style="fill: rgb(147, 103, 62);" transform="matrix(1, 0, 0, 1, 0, 0)"/><path d="M 1167.300024 285.600006 A 17.4 17.4 0 0 1 1149.900024 303.000006 A 17.4 17.4 0 0 1 1132.500025 285.600006 A 17.4 17.4 0 0 1 1149.900024 268.200006 A 17.4 17.4 0 0 1 1167.300024 285.600006 Z" class="st35" style="fill: rgb(84, 47, 22);" transform="matrix(1, 0, 0, 1, 0, 0)"/></g></svg>